<?xml version="1.0" encoding="UTF-8" standalone="no"?>
<svg
   xmlns:dc="http://purl.org/dc/elements/1.1/"
   xmlns:cc="http://creativecommons.org/ns#"
   xmlns:rdf="http://www.w3.org/1999/02/22-rdf-syntax-ns#"
   xmlns:svg="http://www.w3.org/2000/svg"
   xmlns="http://www.w3.org/2000/svg"
   xmlns:sodipodi="http://sodipodi.sourceforge.net/DTD/sodipodi-0.dtd"
   xmlns:inkscape="http://www.inkscape.org/namespaces/inkscape"
   fill-opacity="1"
   color-rendering="auto"
   color-interpolation="auto"
   stroke="black"
   text-rendering="auto"
   stroke-linecap="square"
   width="4.052083333333333in"
   stroke-miterlimit="10"
   stroke-opacity="1"
   shape-rendering="auto"
   fill="black"
   stroke-dasharray="none"
   font-weight="normal"
   stroke-width="1"
   viewBox="0 0 389 214"
   height="2.2291666666666665in"
   font-family="'Arial'"
   font-style="normal"
   stroke-linejoin="miter"
   font-size="12"
   stroke-dashoffset="0"
   image-rendering="auto"
   id="svg2"
   version="1.1"
   inkscape:version="0.48.2 r9819"
   sodipodi:docname="SysML_Use_Case_Diagram__Cas_d'utilisation.svg"
   inkscape:export-filename="F:\Github\04_Etude_Systemes_Electriques_Analyser_Modeliser_Resoudre_Realiser\01_DipolesSources\TD_01_Girouette\images\uc.png"
   inkscape:export-xdpi="150"
   inkscape:export-ydpi="150">
  <metadata
     id="metadata119">
    <rdf:RDF>
      <cc:Work
         rdf:about="">
        <dc:format>image/svg+xml</dc:format>
        <dc:type
           rdf:resource="http://purl.org/dc/dcmitype/StillImage" />
        <dc:title></dc:title>
      </cc:Work>
    </rdf:RDF>
  </metadata>
  <sodipodi:namedview
     pagecolor="#ffffff"
     bordercolor="#666666"
     borderopacity="1"
     objecttolerance="10"
     gridtolerance="10"
     guidetolerance="10"
     inkscape:pageopacity="0"
     inkscape:pageshadow="2"
     inkscape:window-width="640"
     inkscape:window-height="480"
     id="namedview117"
     showgrid="false"
     inkscape:zoom="1.3161954"
     inkscape:cx="182.34375"
     inkscape:cy="100.3125"
     inkscape:window-x="0"
     inkscape:window-y="0"
     inkscape:window-maximized="0"
     inkscape:current-layer="svg2" />
  <!--Generated by the Batik Graphics2D SVG Generator
 This is MagicDraw diagram.-->
  <defs
     id="genericDefs" />
  <g
     id="g5">
    <defs
       id="defs1">
      <linearGradient
         x1="105"
         gradientUnits="userSpaceOnUse"
         x2="354"
         y1="35"
         y2="179"
         id="linearGradient1"
         spreadMethod="pad">
        <stop
           stop-opacity="1"
           stop-color="rgb(212,221,255)"
           offset="0%"
           id="stop9" />
        <stop
           stop-opacity="1"
           stop-color="white"
           offset="100%"
           id="stop11" />
      </linearGradient>
      <linearGradient
         x1="126"
         gradientUnits="userSpaceOnUse"
         x2="336"
         y1="119"
         y2="168"
         id="linearGradient2"
         spreadMethod="pad">
        <stop
           stop-opacity="1"
           stop-color="rgb(255,255,204)"
           offset="0%"
           id="stop14" />
        <stop
           stop-opacity="1"
           stop-color="white"
           offset="100%"
           id="stop16" />
      </linearGradient>
      <linearGradient
         x1="126"
         gradientUnits="userSpaceOnUse"
         x2="336"
         y1="63"
         y2="112"
         id="linearGradient3"
         spreadMethod="pad">
        <stop
           stop-opacity="1"
           stop-color="rgb(255,255,204)"
           offset="0%"
           id="stop19" />
        <stop
           stop-opacity="1"
           stop-color="white"
           offset="100%"
           id="stop21" />
      </linearGradient>
      <linearGradient
         x1="33"
         gradientUnits="userSpaceOnUse"
         x2="60"
         y1="91"
         y2="118"
         id="linearGradient4"
         spreadMethod="pad">
        <stop
           stop-opacity="1"
           stop-color="rgb(255,255,204)"
           offset="0%"
           id="stop24" />
        <stop
           stop-opacity="1"
           stop-color="white"
           offset="100%"
           id="stop26" />
      </linearGradient>
      <clipPath
         clipPathUnits="userSpaceOnUse"
         id="clipPath1">
        <path
           d="M0 -5 L389 -5 L389 214 L0 214 L0 -5 Z"
           id="path29" />
      </clipPath>
    </defs>
    <g
       fill="white"
       stroke="white"
       id="g31">
      <rect
         x="5"
         width="369"
         height="194"
         y="5"
         clip-path="url(#clipPath1)"
         stroke="none"
         id="rect33" />
    </g>
    <g
       fill="rgb(66,66,66)"
       text-rendering="geometricPrecision"
       stroke-linejoin="round"
       stroke-linecap="butt"
       stroke="rgb(66,66,66)"
       id="g35">
      <rect
         fill="none"
         x="5"
         width="369"
         height="194"
         y="5"
         clip-path="url(#clipPath1)"
         id="rect37" />
      <path
         fill="black"
         d="M110.4688 15.7322 L111.5156 15.9978 Q111.1875 17.2791 110.3359 17.9587 Q109.4844 18.6384 108.25 18.6384 Q106.9688 18.6384 106.1719 18.115 Q105.375 17.5916 104.9609 16.6072 Q104.5469 15.6228 104.5469 14.4978 Q104.5469 13.2791 105.0156 12.3572 Q105.4844 11.4353 106.3516 10.9587 Q107.2188 10.4822 108.2656 10.4822 Q109.4531 10.4822 110.2578 11.0837 Q111.0625 11.6853 111.375 12.7791 L110.3438 13.0291 Q110.0781 12.1697 109.5547 11.7791 Q109.0312 11.3884 108.25 11.3884 Q107.3281 11.3884 106.7188 11.8181 Q106.1094 12.2478 105.8672 12.9822 Q105.625 13.7166 105.625 14.4978 Q105.625 15.4978 105.9141 16.2478 Q106.2031 16.9978 106.8203 17.3728 Q107.4375 17.7478 108.1562 17.7478 Q109.0312 17.7478 109.6406 17.24 Q110.25 16.7322 110.4688 15.7322 ZM115.4531 17.7947 Q114.9062 18.2478 114.4141 18.4353 Q113.9219 18.6228 113.3438 18.6228 Q112.4062 18.6228 111.8984 18.1619 Q111.3906 17.7009 111.3906 16.9978 Q111.3906 16.5759 111.5859 16.2322 Q111.7812 15.8884 112.0859 15.6775 Q112.3906 15.4666 112.7812 15.3572 Q113.0625 15.2791 113.6406 15.2166 Q114.8125 15.0759 115.3594 14.8728 Q115.375 14.6853 115.375 14.6228 Q115.375 14.0291 115.0938 13.7947 Q114.7344 13.4666 114 13.4666 Q113.3125 13.4666 112.9922 13.7009 Q112.6719 13.9353 112.5156 14.5447 L111.5625 14.4197 Q111.6875 13.8103 111.9844 13.4353 Q112.2812 13.0603 112.8438 12.865 Q113.4062 12.6697 114.1406 12.6697 Q114.875 12.6697 115.3281 12.8416 Q115.7812 13.0134 115.9922 13.2712 Q116.2031 13.5291 116.2969 13.9197 Q116.3438 14.1697 116.3438 14.8259 L116.3438 16.1072 Q116.3438 17.4509 116.4062 17.8103 Q116.4688 18.1697 116.6562 18.4978 L115.6406 18.4978 Q115.4844 18.2009 115.4531 17.7947 ZM115.3594 15.6384 Q114.8438 15.8572 113.7812 15.9978 Q113.1875 16.0916 112.9453 16.1931 Q112.7031 16.2947 112.5625 16.5056 Q112.4219 16.7166 112.4219 16.9666 Q112.4219 17.3572 112.7188 17.615 Q113.0156 17.8728 113.5781 17.8728 Q114.1406 17.8728 114.5703 17.6228 Q115 17.3728 115.2188 16.9509 Q115.3594 16.6228 115.3594 15.9822 L115.3594 15.6384 ZM117.3438 16.7947 L118.2969 16.6384 Q118.375 17.2166 118.7422 17.5212 Q119.1094 17.8259 119.7656 17.8259 Q120.4375 17.8259 120.7578 17.5603 Q121.0781 17.2947 121.0781 16.9197 Q121.0781 16.5916 120.7969 16.4041 Q120.5938 16.2791 119.8125 16.0759 Q118.75 15.8103 118.3359 15.615 Q117.9219 15.4197 117.7109 15.0759 Q117.5 14.7322 117.5 14.3103 Q117.5 13.9197 117.6719 13.5994 Q117.8438 13.2791 118.1562 13.0603 Q118.375 12.8884 118.7656 12.7791 Q119.1562 12.6697 119.5938 12.6697 Q120.2656 12.6697 120.7734 12.8572 Q121.2812 13.0447 121.5234 13.3806 Q121.7656 13.7166 121.8594 14.2634 L120.9219 14.3884 Q120.8438 13.9509 120.5391 13.7087 Q120.2344 13.4666 119.6719 13.4666 Q119 13.4666 118.7188 13.6853 Q118.4375 13.9041 118.4375 14.2009 Q118.4375 14.3884 118.5469 14.5291 Q118.6719 14.6853 118.9219 14.7947 Q119.0625 14.8416 119.7812 15.0447 Q120.7969 15.3103 121.2031 15.4822 Q121.6094 15.6541 121.8438 15.99 Q122.0781 16.3259 122.0781 16.8259 Q122.0781 17.3103 121.7969 17.7322 Q121.5156 18.1541 120.9844 18.3884 Q120.4531 18.6228 119.7812 18.6228 Q118.6719 18.6228 118.0859 18.1619 Q117.5 17.7009 117.3438 16.7947 ZM130.4219 18.4978 L130.4219 17.7791 Q129.8906 18.6228 128.8281 18.6228 Q128.1562 18.6228 127.5781 18.2478 Q127 17.8728 126.6875 17.2009 Q126.375 16.5291 126.375 15.6541 Q126.375 14.7947 126.6641 14.0994 Q126.9531 13.4041 127.5156 13.0369 Q128.0781 12.6697 128.7812 12.6697 Q129.2969 12.6697 129.7031 12.8884 Q130.1094 13.1072 130.3594 13.4509 L130.3594 10.6228 L131.3281 10.6228 L131.3281 18.4978 L130.4219 18.4978 ZM127.375 15.6541 Q127.375 16.7478 127.8359 17.2869 Q128.2969 17.8259 128.9219 17.8259 Q129.5625 17.8259 130 17.3103 Q130.4375 16.7947 130.4375 15.7322 Q130.4375 14.5603 129.9922 14.0134 Q129.5469 13.4666 128.875 13.4666 Q128.2344 13.4666 127.8047 13.99 Q127.375 14.5134 127.375 15.6541 ZM132.7344 13.4041 L132.4844 11.9353 L132.4844 10.6228 L133.5781 10.6228 L133.5781 11.9353 L133.3281 13.4041 L132.7344 13.4041 ZM138.4688 18.4978 L138.4688 17.6541 Q137.7969 18.6228 136.6562 18.6228 Q136.1562 18.6228 135.7109 18.4275 Q135.2656 18.2322 135.0547 17.9431 Q134.8438 17.6541 134.7656 17.2322 Q134.7031 16.9509 134.7031 16.3259 L134.7031 12.7947 L135.6719 12.7947 L135.6719 15.9509 Q135.6719 16.7166 135.7344 16.9822 Q135.8281 17.3572 136.1172 17.5759 Q136.4062 17.7947 136.8438 17.7947 Q137.2812 17.7947 137.6641 17.5681 Q138.0469 17.3416 138.2031 16.9587 Q138.3594 16.5759 138.3594 15.8572 L138.3594 12.7947 L139.3281 12.7947 L139.3281 18.4978 L138.4688 18.4978 ZM142.8438 17.6384 L142.9688 18.4822 Q142.5625 18.5759 142.25 18.5759 Q141.7188 18.5759 141.4297 18.4041 Q141.1406 18.2322 141.0234 17.9666 Q140.9062 17.7009 140.9062 16.8259 L140.9062 13.5447 L140.1875 13.5447 L140.1875 12.7947 L140.9062 12.7947 L140.9062 11.3884 L141.8594 10.7947 L141.8594 12.7947 L142.8438 12.7947 L142.8438 13.5447 L141.8594 13.5447 L141.8594 16.8884 Q141.8594 17.2947 141.9141 17.4119 Q141.9688 17.5291 142.0859 17.5994 Q142.2031 17.6697 142.4062 17.6697 Q142.5781 17.6697 142.8438 17.6384 ZM143.7344 11.7322 L143.7344 10.6228 L144.7031 10.6228 L144.7031 11.7322 L143.7344 11.7322 ZM143.7344 18.4978 L143.7344 12.7947 L144.7031 12.7947 L144.7031 18.4978 L143.7344 18.4978 ZM145.7031 18.4978 L145.7031 10.6228 L146.6719 10.6228 L146.6719 18.4978 L145.7031 18.4978 ZM147.7344 11.7322 L147.7344 10.6228 L148.7031 10.6228 L148.7031 11.7322 L147.7344 11.7322 ZM147.7344 18.4978 L147.7344 12.7947 L148.7031 12.7947 L148.7031 18.4978 L147.7344 18.4978 ZM149.3438 16.7947 L150.2969 16.6384 Q150.375 17.2166 150.7422 17.5212 Q151.1094 17.8259 151.7656 17.8259 Q152.4375 17.8259 152.7578 17.5603 Q153.0781 17.2947 153.0781 16.9197 Q153.0781 16.5916 152.7969 16.4041 Q152.5938 16.2791 151.8125 16.0759 Q150.75 15.8103 150.3359 15.615 Q149.9219 15.4197 149.7109 15.0759 Q149.5 14.7322 149.5 14.3103 Q149.5 13.9197 149.6719 13.5994 Q149.8438 13.2791 150.1562 13.0603 Q150.375 12.8884 150.7656 12.7791 Q151.1562 12.6697 151.5938 12.6697 Q152.2656 12.6697 152.7734 12.8572 Q153.2812 13.0447 153.5234 13.3806 Q153.7656 13.7166 153.8594 14.2634 L152.9219 14.3884 Q152.8438 13.9509 152.5391 13.7087 Q152.2344 13.4666 151.6719 13.4666 Q151 13.4666 150.7188 13.6853 Q150.4375 13.9041 150.4375 14.2009 Q150.4375 14.3884 150.5469 14.5291 Q150.6719 14.6853 150.9219 14.7947 Q151.0625 14.8416 151.7812 15.0447 Q152.7969 15.3103 153.2031 15.4822 Q153.6094 15.6541 153.8438 15.99 Q154.0781 16.3259 154.0781 16.8259 Q154.0781 17.3103 153.7969 17.7322 Q153.5156 18.1541 152.9844 18.3884 Q152.4531 18.6228 151.7812 18.6228 Q150.6719 18.6228 150.0859 18.1619 Q149.5 17.7009 149.3438 16.7947 ZM159.4531 17.7947 Q158.9062 18.2478 158.4141 18.4353 Q157.9219 18.6228 157.3438 18.6228 Q156.4062 18.6228 155.8984 18.1619 Q155.3906 17.7009 155.3906 16.9978 Q155.3906 16.5759 155.5859 16.2322 Q155.7812 15.8884 156.0859 15.6775 Q156.3906 15.4666 156.7812 15.3572 Q157.0625 15.2791 157.6406 15.2166 Q158.8125 15.0759 159.3594 14.8728 Q159.375 14.6853 159.375 14.6228 Q159.375 14.0291 159.0938 13.7947 Q158.7344 13.4666 158 13.4666 Q157.3125 13.4666 156.9922 13.7009 Q156.6719 13.9353 156.5156 14.5447 L155.5625 14.4197 Q155.6875 13.8103 155.9844 13.4353 Q156.2812 13.0603 156.8438 12.865 Q157.4062 12.6697 158.1406 12.6697 Q158.875 12.6697 159.3281 12.8416 Q159.7812 13.0134 159.9922 13.2712 Q160.2031 13.5291 160.2969 13.9197 Q160.3438 14.1697 160.3438 14.8259 L160.3438 16.1072 Q160.3438 17.4509 160.4062 17.8103 Q160.4688 18.1697 160.6562 18.4978 L159.6406 18.4978 Q159.4844 18.2009 159.4531 17.7947 ZM159.3594 15.6384 Q158.8438 15.8572 157.7812 15.9978 Q157.1875 16.0916 156.9453 16.1931 Q156.7031 16.2947 156.5625 16.5056 Q156.4219 16.7166 156.4219 16.9666 Q156.4219 17.3572 156.7188 17.615 Q157.0156 17.8728 157.5781 17.8728 Q158.1406 17.8728 158.5703 17.6228 Q159 17.3728 159.2188 16.9509 Q159.3594 16.6228 159.3594 15.9822 L159.3594 15.6384 ZM163.8438 17.6384 L163.9688 18.4822 Q163.5625 18.5759 163.25 18.5759 Q162.7188 18.5759 162.4297 18.4041 Q162.1406 18.2322 162.0234 17.9666 Q161.9062 17.7009 161.9062 16.8259 L161.9062 13.5447 L161.1875 13.5447 L161.1875 12.7947 L161.9062 12.7947 L161.9062 11.3884 L162.8594 10.7947 L162.8594 12.7947 L163.8438 12.7947 L163.8438 13.5447 L162.8594 13.5447 L162.8594 16.8884 Q162.8594 17.2947 162.9141 17.4119 Q162.9688 17.5291 163.0859 17.5994 Q163.2031 17.6697 163.4062 17.6697 Q163.5781 17.6697 163.8438 17.6384 ZM164.7344 11.7322 L164.7344 10.6228 L165.7031 10.6228 L165.7031 11.7322 L164.7344 11.7322 ZM164.7344 18.4978 L164.7344 12.7947 L165.7031 12.7947 L165.7031 18.4978 L164.7344 18.4978 ZM166.3594 15.6384 Q166.3594 14.0603 167.25 13.2947 Q167.9844 12.6697 169.0469 12.6697 Q170.2188 12.6697 170.9609 13.4353 Q171.7031 14.2009 171.7031 15.5603 Q171.7031 16.6697 171.375 17.3025 Q171.0469 17.9353 170.4141 18.2791 Q169.7812 18.6228 169.0469 18.6228 Q167.8438 18.6228 167.1016 17.8572 Q166.3594 17.0916 166.3594 15.6384 ZM167.3594 15.6384 Q167.3594 16.7478 167.8359 17.2869 Q168.3125 17.8259 169.0469 17.8259 Q169.7656 17.8259 170.2422 17.2791 Q170.7188 16.7322 170.7188 15.6072 Q170.7188 14.5603 170.2344 14.0134 Q169.75 13.4666 169.0469 13.4666 Q168.3125 13.4666 167.8359 14.0056 Q167.3594 14.5447 167.3594 15.6384 ZM172.7188 18.4978 L172.7188 12.7947 L173.5938 12.7947 L173.5938 13.6072 Q174.2188 12.6697 175.4062 12.6697 Q175.9219 12.6697 176.3594 12.8494 Q176.7969 13.0291 177.0078 13.3337 Q177.2188 13.6384 177.3125 14.0447 Q177.3594 14.3259 177.3594 14.9978 L177.3594 18.4978 L176.3906 18.4978 L176.3906 15.0291 Q176.3906 14.4353 176.2812 14.1462 Q176.1719 13.8572 175.8828 13.6775 Q175.5938 13.4978 175.2031 13.4978 Q174.5938 13.4978 174.1406 13.8884 Q173.6875 14.2791 173.6875 15.3884 L173.6875 18.4978 L172.7188 18.4978 Z"
         clip-path="url(#clipPath1)"
         stroke="none"
         id="path39" />
      <path
         fill="black"
         d="M29.75 20.6853 L29.75 10.6228 L31.875 10.6228 L31.875 11.4197 L30.7188 11.4197 L30.7188 19.8884 L31.875 19.8884 L31.875 20.6853 L29.75 20.6853 ZM32.8125 18.4978 L32.8125 10.6228 L34.3906 10.6228 L36.25 16.2009 Q36.5 16.9822 36.625 17.3572 Q36.7656 16.9353 37.0469 16.1072 L38.9219 10.6228 L40.3281 10.6228 L40.3281 18.4978 L39.3281 18.4978 L39.3281 11.9041 L37.0312 18.4978 L36.0938 18.4978 L33.8281 11.7947 L33.8281 18.4978 L32.8125 18.4978 ZM40.3594 15.6384 Q40.3594 14.0603 41.25 13.2947 Q41.9844 12.6697 43.0469 12.6697 Q44.2188 12.6697 44.9609 13.4353 Q45.7031 14.2009 45.7031 15.5603 Q45.7031 16.6697 45.375 17.3025 Q45.0469 17.9353 44.4141 18.2791 Q43.7812 18.6228 43.0469 18.6228 Q41.8438 18.6228 41.1016 17.8572 Q40.3594 17.0916 40.3594 15.6384 ZM41.3594 15.6384 Q41.3594 16.7478 41.8359 17.2869 Q42.3125 17.8259 43.0469 17.8259 Q43.7656 17.8259 44.2422 17.2791 Q44.7188 16.7322 44.7188 15.6072 Q44.7188 14.5603 44.2344 14.0134 Q43.75 13.4666 43.0469 13.4666 Q42.3125 13.4666 41.8359 14.0056 Q41.3594 14.5447 41.3594 15.6384 ZM50.4219 18.4978 L50.4219 17.7791 Q49.8906 18.6228 48.8281 18.6228 Q48.1562 18.6228 47.5781 18.2478 Q47 17.8728 46.6875 17.2009 Q46.375 16.5291 46.375 15.6541 Q46.375 14.7947 46.6641 14.0994 Q46.9531 13.4041 47.5156 13.0369 Q48.0781 12.6697 48.7812 12.6697 Q49.2969 12.6697 49.7031 12.8884 Q50.1094 13.1072 50.3594 13.4509 L50.3594 10.6228 L51.3281 10.6228 L51.3281 18.4978 L50.4219 18.4978 ZM47.375 15.6541 Q47.375 16.7478 47.8359 17.2869 Q48.2969 17.8259 48.9219 17.8259 Q49.5625 17.8259 50 17.3103 Q50.4375 16.7947 50.4375 15.7322 Q50.4375 14.5603 49.9922 14.0134 Q49.5469 13.4666 48.875 13.4666 Q48.2344 13.4666 47.8047 13.99 Q47.375 14.5134 47.375 15.6541 ZM56.625 16.6541 L57.625 16.7791 Q57.3906 17.6541 56.75 18.1384 Q56.1094 18.6228 55.125 18.6228 Q53.875 18.6228 53.1406 17.8572 Q52.4062 17.0916 52.4062 15.7009 Q52.4062 14.2478 53.1484 13.4587 Q53.8906 12.6697 55.0625 12.6697 Q56.2188 12.6697 56.9375 13.4431 Q57.6562 14.2166 57.6562 15.6384 Q57.6562 15.7166 57.6562 15.8884 L53.4062 15.8884 Q53.4531 16.8259 53.9297 17.3259 Q54.4062 17.8259 55.125 17.8259 Q55.6562 17.8259 56.0312 17.5525 Q56.4062 17.2791 56.625 16.6541 ZM53.4531 15.0916 L56.6406 15.0916 Q56.5781 14.3728 56.2812 14.0134 Q55.8125 13.4666 55.0781 13.4666 Q54.4062 13.4666 53.9531 13.9119 Q53.5 14.3572 53.4531 15.0916 ZM54.7812 11.4978 L54 11.4978 L52.7656 9.9822 L54.0469 9.9822 L54.7812 11.4978 ZM58.7031 18.4978 L58.7031 10.6228 L59.6719 10.6228 L59.6719 18.4978 L58.7031 18.4978 ZM64.625 16.6541 L65.625 16.7791 Q65.3906 17.6541 64.75 18.1384 Q64.1094 18.6228 63.125 18.6228 Q61.875 18.6228 61.1406 17.8572 Q60.4062 17.0916 60.4062 15.7009 Q60.4062 14.2478 61.1484 13.4587 Q61.8906 12.6697 63.0625 12.6697 Q64.2188 12.6697 64.9375 13.4431 Q65.6562 14.2166 65.6562 15.6384 Q65.6562 15.7166 65.6562 15.8884 L61.4062 15.8884 Q61.4531 16.8259 61.9297 17.3259 Q62.4062 17.8259 63.125 17.8259 Q63.6562 17.8259 64.0312 17.5525 Q64.4062 17.2791 64.625 16.6541 ZM61.4531 15.0916 L64.6406 15.0916 Q64.5781 14.3728 64.2812 14.0134 Q63.8125 13.4666 63.0781 13.4666 Q62.4062 13.4666 61.9531 13.9119 Q61.5 14.3572 61.4531 15.0916 ZM68.3438 20.6853 L66.2031 20.6853 L66.2031 19.8884 L67.375 19.8884 L67.375 11.4197 L66.2031 11.4197 L66.2031 10.6228 L68.3438 10.6228 L68.3438 20.6853 Z"
         clip-path="url(#clipPath1)"
         stroke="none"
         id="path41" />
      <path
         fill="black"
         d="M73.8438 18.4978 L73.8438 10.6228 L76.5625 10.6228 Q77.4844 10.6228 77.9688 10.7322 Q78.6406 10.8884 79.125 11.2947 Q79.7344 11.8259 80.0469 12.6462 Q80.3594 13.4666 80.3594 14.5134 Q80.3594 15.4197 80.1484 16.1072 Q79.9375 16.7947 79.6094 17.2478 Q79.2812 17.7009 78.8906 17.9666 Q78.5 18.2322 77.9531 18.365 Q77.4062 18.4978 76.6875 18.4978 L73.8438 18.4978 ZM74.8906 17.5759 L76.5781 17.5759 Q77.3438 17.5759 77.7891 17.4275 Q78.2344 17.2791 78.5 17.0134 Q78.875 16.6384 79.0781 16.0134 Q79.2812 15.3884 79.2812 14.4978 Q79.2812 13.2634 78.875 12.5994 Q78.4688 11.9353 77.8906 11.7166 Q77.4688 11.5603 76.5469 11.5603 L74.8906 11.5603 L74.8906 17.5759 ZM84.4531 17.7947 Q83.9062 18.2478 83.4141 18.4353 Q82.9219 18.6228 82.3438 18.6228 Q81.4062 18.6228 80.8984 18.1619 Q80.3906 17.7009 80.3906 16.9978 Q80.3906 16.5759 80.5859 16.2322 Q80.7812 15.8884 81.0859 15.6775 Q81.3906 15.4666 81.7812 15.3572 Q82.0625 15.2791 82.6406 15.2166 Q83.8125 15.0759 84.3594 14.8728 Q84.375 14.6853 84.375 14.6228 Q84.375 14.0291 84.0938 13.7947 Q83.7344 13.4666 83 13.4666 Q82.3125 13.4666 81.9922 13.7009 Q81.6719 13.9353 81.5156 14.5447 L80.5625 14.4197 Q80.6875 13.8103 80.9844 13.4353 Q81.2812 13.0603 81.8438 12.865 Q82.4062 12.6697 83.1406 12.6697 Q83.875 12.6697 84.3281 12.8416 Q84.7812 13.0134 84.9922 13.2712 Q85.2031 13.5291 85.2969 13.9197 Q85.3438 14.1697 85.3438 14.8259 L85.3438 16.1072 Q85.3438 17.4509 85.4062 17.8103 Q85.4688 18.1697 85.6562 18.4978 L84.6406 18.4978 Q84.4844 18.2009 84.4531 17.7947 ZM84.3594 15.6384 Q83.8438 15.8572 82.7812 15.9978 Q82.1875 16.0916 81.9453 16.1931 Q81.7031 16.2947 81.5625 16.5056 Q81.4219 16.7166 81.4219 16.9666 Q81.4219 17.3572 81.7188 17.615 Q82.0156 17.8728 82.5781 17.8728 Q83.1406 17.8728 83.5703 17.6228 Q84 17.3728 84.2188 16.9509 Q84.3594 16.6228 84.3594 15.9822 L84.3594 15.6384 ZM88.8438 17.6384 L88.9688 18.4822 Q88.5625 18.5759 88.25 18.5759 Q87.7188 18.5759 87.4297 18.4041 Q87.1406 18.2322 87.0234 17.9666 Q86.9062 17.7009 86.9062 16.8259 L86.9062 13.5447 L86.1875 13.5447 L86.1875 12.7947 L86.9062 12.7947 L86.9062 11.3884 L87.8594 10.7947 L87.8594 12.7947 L88.8438 12.7947 L88.8438 13.5447 L87.8594 13.5447 L87.8594 16.8884 Q87.8594 17.2947 87.9141 17.4119 Q87.9688 17.5291 88.0859 17.5994 Q88.2031 17.6697 88.4062 17.6697 Q88.5781 17.6697 88.8438 17.6384 ZM93.4531 17.7947 Q92.9062 18.2478 92.4141 18.4353 Q91.9219 18.6228 91.3438 18.6228 Q90.4062 18.6228 89.8984 18.1619 Q89.3906 17.7009 89.3906 16.9978 Q89.3906 16.5759 89.5859 16.2322 Q89.7812 15.8884 90.0859 15.6775 Q90.3906 15.4666 90.7812 15.3572 Q91.0625 15.2791 91.6406 15.2166 Q92.8125 15.0759 93.3594 14.8728 Q93.375 14.6853 93.375 14.6228 Q93.375 14.0291 93.0938 13.7947 Q92.7344 13.4666 92 13.4666 Q91.3125 13.4666 90.9922 13.7009 Q90.6719 13.9353 90.5156 14.5447 L89.5625 14.4197 Q89.6875 13.8103 89.9844 13.4353 Q90.2812 13.0603 90.8438 12.865 Q91.4062 12.6697 92.1406 12.6697 Q92.875 12.6697 93.3281 12.8416 Q93.7812 13.0134 93.9922 13.2712 Q94.2031 13.5291 94.2969 13.9197 Q94.3438 14.1697 94.3438 14.8259 L94.3438 16.1072 Q94.3438 17.4509 94.4062 17.8103 Q94.4688 18.1697 94.6562 18.4978 L93.6406 18.4978 Q93.4844 18.2009 93.4531 17.7947 ZM93.3594 15.6384 Q92.8438 15.8572 91.7812 15.9978 Q91.1875 16.0916 90.9453 16.1931 Q90.7031 16.2947 90.5625 16.5056 Q90.4219 16.7166 90.4219 16.9666 Q90.4219 17.3572 90.7188 17.615 Q91.0156 17.8728 91.5781 17.8728 Q92.1406 17.8728 92.5703 17.6228 Q93 17.3728 93.2188 16.9509 Q93.3594 16.6228 93.3594 15.9822 L93.3594 15.6384 Z"
         clip-path="url(#clipPath1)"
         stroke="none"
         id="path43" />
      <path
         fill="black"
         d="M16.5469 18.4978 L16.5469 17.6384 Q16.2344 18.1072 15.7266 18.365 Q15.2188 18.6228 14.6562 18.6228 Q14.0781 18.6228 13.625 18.3728 Q13.1719 18.1228 12.9609 17.6619 Q12.75 17.2009 12.75 16.4041 L12.75 12.7947 L14.2656 12.7947 L14.2656 15.4197 Q14.2656 16.6228 14.3516 16.8884 Q14.4375 17.1541 14.6562 17.3181 Q14.875 17.4822 15.2188 17.4822 Q15.5938 17.4822 15.9062 17.2712 Q16.2188 17.0603 16.3281 16.74 Q16.4375 16.4197 16.4375 15.2009 L16.4375 12.7947 L17.9531 12.7947 L17.9531 18.4978 L16.5469 18.4978 ZM24.7656 14.4822 L23.2812 14.7478 Q23.2031 14.3103 22.9375 14.0837 Q22.6719 13.8572 22.25 13.8572 Q21.6875 13.8572 21.3516 14.24 Q21.0156 14.6228 21.0156 15.5447 Q21.0156 16.5603 21.3516 16.9822 Q21.6875 17.4041 22.2656 17.4041 Q22.7031 17.4041 22.9766 17.1541 Q23.25 16.9041 23.3594 16.3103 L24.8438 16.5603 Q24.6094 17.5916 23.9531 18.1072 Q23.2969 18.6228 22.2031 18.6228 Q20.9375 18.6228 20.1953 17.8337 Q19.4531 17.0447 19.4531 15.6541 Q19.4531 14.2322 20.2031 13.4509 Q20.9531 12.6697 22.2188 12.6697 Q23.2656 12.6697 23.8828 13.115 Q24.5 13.5603 24.7656 14.4822 Z"
         clip-path="url(#clipPath1)"
         stroke="none"
         id="path45" />
      <path
         fill="black"
         d="M97.75 20.6853 L97.75 10.6228 L99.875 10.6228 L99.875 11.4197 L98.7188 11.4197 L98.7188 19.8884 L99.875 19.8884 L99.875 20.6853 L97.75 20.6853 Z"
         clip-path="url(#clipPath1)"
         stroke="none"
         id="path47" />
      <path
         fill="black"
         d="M184.3438 20.6853 L182.2031 20.6853 L182.2031 19.8884 L183.375 19.8884 L183.375 11.4197 L182.2031 11.4197 L182.2031 10.6228 L184.3438 10.6228 L184.3438 20.6853 Z"
         clip-path="url(#clipPath1)"
         stroke="none"
         id="path49" />
      <line
         y2="23"
         fill="none"
         x1="5"
         clip-path="url(#clipPath1)"
         x2="180"
         y1="23"
         id="line51" />
      <line
         y2="17"
         fill="none"
         x1="189"
         clip-path="url(#clipPath1)"
         x2="189"
         y1="5"
         id="line53" />
      <line
         y2="17"
         fill="none"
         x1="180"
         clip-path="url(#clipPath1)"
         x2="189"
         y1="23"
         id="line55" />
      <rect
         x="108"
         y="38"
         clip-path="url(#clipPath1)"
         fill="rgb(178,178,178)"
         width="249"
         height="144"
         stroke="none"
         id="rect57" />
      <rect
         x="105"
         y="35"
         clip-path="url(#clipPath1)"
         fill="url(#linearGradient1)"
         width="249"
         height="144"
         stroke="none"
         id="rect59" />
      <rect
         x="105"
         y="35"
         clip-path="url(#clipPath1)"
         fill="none"
         width="249"
         height="144"
         stroke="rgb(107,117,153)"
         id="rect61" />
      <path
         fill="black"
         d="M158.4375 47.6733 L160.3906 48.2983 Q159.9375 49.939 158.8906 50.7358 Q157.8438 51.5327 156.2344 51.5327 Q154.2344 51.5327 152.9453 50.1655 Q151.6562 48.7983 151.6562 46.439 Q151.6562 43.939 152.9531 42.5562 Q154.25 41.1733 156.3594 41.1733 Q158.1875 41.1733 159.3438 42.2515 Q160.0312 42.8921 160.3594 44.0952 L158.3594 44.5796 Q158.1875 43.7983 157.625 43.3452 Q157.0625 42.8921 156.25 42.8921 Q155.1406 42.8921 154.4453 43.6968 Q153.75 44.5015 153.75 46.2827 Q153.75 48.189 154.4297 48.9937 Q155.1094 49.7983 156.2031 49.7983 Q157.0156 49.7983 157.5938 49.2905 Q158.1719 48.7827 158.4375 47.6733 ZM166.2031 49.0483 L168.125 49.3765 Q167.75 50.4233 166.9531 50.978 Q166.1562 51.5327 164.9688 51.5327 Q163.0781 51.5327 162.1562 50.2827 Q161.4375 49.2983 161.4375 47.7827 Q161.4375 45.9858 162.3828 44.9624 Q163.3281 43.939 164.7812 43.939 Q166.3906 43.939 167.3281 45.0093 Q168.2656 46.0796 168.2188 48.2827 L163.4062 48.2827 Q163.4375 49.1421 163.8828 49.6187 Q164.3281 50.0952 164.9844 50.0952 Q165.4375 50.0952 165.7422 49.8452 Q166.0469 49.5952 166.2031 49.0483 ZM166.3125 47.1108 Q166.2969 46.2671 165.8906 45.8374 Q165.4844 45.4077 164.8906 45.4077 Q164.2656 45.4077 163.8438 45.8608 Q163.4375 46.3296 163.4531 47.1108 L166.3125 47.1108 ZM177.6094 51.3608 L175.6875 51.3608 L175.6875 47.6577 Q175.6875 46.4858 175.5625 46.1343 Q175.4375 45.7827 175.1641 45.5952 Q174.8906 45.4077 174.5 45.4077 Q174 45.4077 173.6016 45.6812 Q173.2031 45.9546 173.0547 46.4077 Q172.9062 46.8608 172.9062 48.0796 L172.9062 51.3608 L170.9844 51.3608 L170.9844 44.0952 L172.7812 44.0952 L172.7812 45.1733 Q173.7188 43.939 175.1719 43.939 Q175.7969 43.939 176.3281 44.1655 Q176.8594 44.3921 177.125 44.7515 Q177.3906 45.1108 177.5 45.5562 Q177.6094 46.0015 177.6094 46.8452 L177.6094 51.3608 ZM183.3281 44.0952 L183.3281 45.6265 L182.0156 45.6265 L182.0156 48.564 Q182.0156 49.439 182.0547 49.5874 Q182.0938 49.7358 182.2266 49.8374 Q182.3594 49.939 182.5625 49.939 Q182.8281 49.939 183.3281 49.7515 L183.4844 51.2358 Q182.8281 51.5327 181.9688 51.5327 Q181.4531 51.5327 181.0391 51.353 Q180.625 51.1733 180.4297 50.8999 Q180.2344 50.6265 180.1562 50.1577 Q180.0938 49.814 180.0938 48.7983 L180.0938 45.6265 L179.2188 45.6265 L179.2188 44.0952 L180.0938 44.0952 L180.0938 42.6577 L182.0156 41.5327 L182.0156 44.0952 L183.3281 44.0952 ZM186.8438 51.3608 L184.9219 51.3608 L184.9219 44.0952 L186.7031 44.0952 L186.7031 45.1265 Q187.1719 44.4077 187.5312 44.1733 Q187.8906 43.939 188.3594 43.939 Q189.0156 43.939 189.625 44.2983 L189.0312 45.9702 Q188.5469 45.6577 188.125 45.6577 Q187.7188 45.6577 187.4453 45.8843 Q187.1719 46.1108 187.0078 46.689 Q186.8438 47.2671 186.8438 49.1108 L186.8438 51.3608 ZM192.4375 46.314 L190.7031 46.0015 Q190.9844 44.9546 191.7031 44.4468 Q192.4219 43.939 193.8438 43.939 Q195.125 43.939 195.7578 44.2437 Q196.3906 44.5483 196.6406 45.0171 Q196.8906 45.4858 196.8906 46.7358 L196.875 48.9702 Q196.875 49.939 196.9688 50.3921 Q197.0625 50.8452 197.3125 51.3608 L195.4219 51.3608 Q195.3438 51.1733 195.2344 50.7983 Q195.1875 50.6265 195.1562 50.564 Q194.6719 51.0483 194.1094 51.2905 Q193.5469 51.5327 192.9062 51.5327 Q191.7969 51.5327 191.1484 50.9233 Q190.5 50.314 190.5 49.3765 Q190.5 48.7671 190.7969 48.2827 Q191.0938 47.7983 191.6172 47.5405 Q192.1406 47.2827 193.1406 47.0952 Q194.4844 46.8452 195.0156 46.6265 L195.0156 46.439 Q195.0156 45.8765 194.7422 45.6421 Q194.4688 45.4077 193.7031 45.4077 Q193.1875 45.4077 192.9062 45.6108 Q192.625 45.814 192.4375 46.314 ZM195.0156 47.8765 Q194.6406 48.0015 193.8438 48.1733 Q193.0469 48.3452 192.7969 48.5015 Q192.4219 48.7671 192.4219 49.1733 Q192.4219 49.5796 192.7188 49.8765 Q193.0156 50.1733 193.4844 50.1733 Q194 50.1733 194.4844 49.8296 Q194.8281 49.564 194.9375 49.189 Q195.0156 48.9546 195.0156 48.2515 L195.0156 47.8765 ZM199 51.3608 L199 41.3452 L200.9219 41.3452 L200.9219 51.3608 L199 51.3608 ZM207.2031 49.0483 L209.125 49.3765 Q208.75 50.4233 207.9531 50.978 Q207.1562 51.5327 205.9688 51.5327 Q204.0781 51.5327 203.1562 50.2827 Q202.4375 49.2983 202.4375 47.7827 Q202.4375 45.9858 203.3828 44.9624 Q204.3281 43.939 205.7812 43.939 Q207.3906 43.939 208.3281 45.0093 Q209.2656 46.0796 209.2188 48.2827 L204.4062 48.2827 Q204.4375 49.1421 204.8828 49.6187 Q205.3281 50.0952 205.9844 50.0952 Q206.4375 50.0952 206.7422 49.8452 Q207.0469 49.5952 207.2031 49.0483 ZM207.3125 47.1108 Q207.2969 46.2671 206.8906 45.8374 Q206.4844 45.4077 205.8906 45.4077 Q205.2656 45.4077 204.8438 45.8608 Q204.4375 46.3296 204.4531 47.1108 L207.3125 47.1108 ZM222.6562 51.3608 L220.875 51.3608 L220.875 50.2983 Q220.4375 50.9233 219.8281 51.228 Q219.2188 51.5327 218.6094 51.5327 Q217.3594 51.5327 216.4688 50.5171 Q215.5781 49.5015 215.5781 47.7046 Q215.5781 45.8608 216.4453 44.8999 Q217.3125 43.939 218.6406 43.939 Q219.8594 43.939 220.75 44.9546 L220.75 41.3452 L222.6562 41.3452 L222.6562 51.3608 ZM217.5312 47.5796 Q217.5312 48.7358 217.8594 49.2515 Q218.3281 50.0015 219.1562 50.0015 Q219.8125 50.0015 220.2812 49.439 Q220.75 48.8765 220.75 47.7515 Q220.75 46.5015 220.2969 45.9546 Q219.8438 45.4077 219.1406 45.4077 Q218.4531 45.4077 217.9922 45.9468 Q217.5312 46.4858 217.5312 47.5796 ZM229.2031 49.0483 L231.125 49.3765 Q230.75 50.4233 229.9531 50.978 Q229.1562 51.5327 227.9688 51.5327 Q226.0781 51.5327 225.1562 50.2827 Q224.4375 49.2983 224.4375 47.7827 Q224.4375 45.9858 225.3828 44.9624 Q226.3281 43.939 227.7812 43.939 Q229.3906 43.939 230.3281 45.0093 Q231.2656 46.0796 231.2188 48.2827 L226.4062 48.2827 Q226.4375 49.1421 226.8828 49.6187 Q227.3281 50.0952 227.9844 50.0952 Q228.4375 50.0952 228.7422 49.8452 Q229.0469 49.5952 229.2031 49.0483 ZM229.3125 47.1108 Q229.2969 46.2671 228.8906 45.8374 Q228.4844 45.4077 227.8906 45.4077 Q227.2656 45.4077 226.8438 45.8608 Q226.4375 46.3296 226.4531 47.1108 L229.3125 47.1108 ZM244.6094 51.3608 L242.6875 51.3608 L242.6875 47.6577 Q242.6875 46.4858 242.5625 46.1343 Q242.4375 45.7827 242.1641 45.5952 Q241.8906 45.4077 241.5 45.4077 Q241 45.4077 240.6016 45.6812 Q240.2031 45.9546 240.0547 46.4077 Q239.9062 46.8608 239.9062 48.0796 L239.9062 51.3608 L237.9844 51.3608 L237.9844 44.0952 L239.7812 44.0952 L239.7812 45.1733 Q240.7188 43.939 242.1719 43.939 Q242.7969 43.939 243.3281 44.1655 Q243.8594 44.3921 244.125 44.7515 Q244.3906 45.1108 244.5 45.5562 Q244.6094 46.0015 244.6094 46.8452 L244.6094 51.3608 ZM248.4375 46.314 L246.7031 46.0015 Q246.9844 44.9546 247.7031 44.4468 Q248.4219 43.939 249.8438 43.939 Q251.125 43.939 251.7578 44.2437 Q252.3906 44.5483 252.6406 45.0171 Q252.8906 45.4858 252.8906 46.7358 L252.875 48.9702 Q252.875 49.939 252.9688 50.3921 Q253.0625 50.8452 253.3125 51.3608 L251.4219 51.3608 Q251.3438 51.1733 251.2344 50.7983 Q251.1875 50.6265 251.1562 50.564 Q250.6719 51.0483 250.1094 51.2905 Q249.5469 51.5327 248.9062 51.5327 Q247.7969 51.5327 247.1484 50.9233 Q246.5 50.314 246.5 49.3765 Q246.5 48.7671 246.7969 48.2827 Q247.0938 47.7983 247.6172 47.5405 Q248.1406 47.2827 249.1406 47.0952 Q250.4844 46.8452 251.0156 46.6265 L251.0156 46.439 Q251.0156 45.8765 250.7422 45.6421 Q250.4688 45.4077 249.7031 45.4077 Q249.1875 45.4077 248.9062 45.6108 Q248.625 45.814 248.4375 46.314 ZM251.0156 47.8765 Q250.6406 48.0015 249.8438 48.1733 Q249.0469 48.3452 248.7969 48.5015 Q248.4219 48.7671 248.4219 49.1733 Q248.4219 49.5796 248.7188 49.8765 Q249.0156 50.1733 249.4844 50.1733 Q250 50.1733 250.4844 49.8296 Q250.8281 49.564 250.9375 49.189 Q251.0156 48.9546 251.0156 48.2515 L251.0156 47.8765 ZM257 51.3608 L254.0781 44.0952 L256.0938 44.0952 L257.4531 47.7983 L257.8594 49.0483 Q258.0156 48.564 258.0469 48.4233 Q258.1562 48.1108 258.2656 47.7983 L259.6406 44.0952 L261.6094 44.0952 L258.7344 51.3608 L257 51.3608 ZM264 43.1108 L264 41.3452 L265.9219 41.3452 L265.9219 43.1108 L264 43.1108 ZM264 51.3608 L264 44.0952 L265.9219 44.0952 L265.9219 51.3608 L264 51.3608 ZM267.8281 51.8452 L270.0156 52.1108 Q270.0781 52.4858 270.2812 52.6265 Q270.5469 52.8452 271.1406 52.8452 Q271.8906 52.8452 272.2656 52.6108 Q272.5156 52.4546 272.6406 52.1265 Q272.7344 51.8921 272.7344 51.2515 L272.7344 50.189 Q271.875 51.3608 270.5625 51.3608 Q269.0938 51.3608 268.25 50.1265 Q267.5781 49.1421 267.5781 47.689 Q267.5781 45.8608 268.4531 44.8999 Q269.3281 43.939 270.6406 43.939 Q271.9844 43.939 272.8594 45.1265 L272.8594 44.0952 L274.6562 44.0952 L274.6562 50.6108 Q274.6562 51.9077 274.4453 52.5405 Q274.2344 53.1733 273.8516 53.5327 Q273.4688 53.8921 272.8281 54.103 Q272.1875 54.314 271.2188 54.314 Q269.3594 54.314 268.5938 53.6812 Q267.8281 53.0483 267.8281 52.0796 Q267.8281 51.9702 267.8281 51.8452 ZM269.5469 47.5796 Q269.5469 48.7358 269.9922 49.2749 Q270.4375 49.814 271.0938 49.814 Q271.7969 49.814 272.2812 49.2593 Q272.7656 48.7046 272.7656 47.6265 Q272.7656 46.5015 272.3047 45.9546 Q271.8438 45.4077 271.125 45.4077 Q270.4375 45.4077 269.9922 45.9468 Q269.5469 46.4858 269.5469 47.5796 ZM278.4375 46.314 L276.7031 46.0015 Q276.9844 44.9546 277.7031 44.4468 Q278.4219 43.939 279.8438 43.939 Q281.125 43.939 281.7578 44.2437 Q282.3906 44.5483 282.6406 45.0171 Q282.8906 45.4858 282.8906 46.7358 L282.875 48.9702 Q282.875 49.939 282.9688 50.3921 Q283.0625 50.8452 283.3125 51.3608 L281.4219 51.3608 Q281.3438 51.1733 281.2344 50.7983 Q281.1875 50.6265 281.1562 50.564 Q280.6719 51.0483 280.1094 51.2905 Q279.5469 51.5327 278.9062 51.5327 Q277.7969 51.5327 277.1484 50.9233 Q276.5 50.314 276.5 49.3765 Q276.5 48.7671 276.7969 48.2827 Q277.0938 47.7983 277.6172 47.5405 Q278.1406 47.2827 279.1406 47.0952 Q280.4844 46.8452 281.0156 46.6265 L281.0156 46.439 Q281.0156 45.8765 280.7422 45.6421 Q280.4688 45.4077 279.7031 45.4077 Q279.1875 45.4077 278.9062 45.6108 Q278.625 45.814 278.4375 46.314 ZM281.0156 47.8765 Q280.6406 48.0015 279.8438 48.1733 Q279.0469 48.3452 278.7969 48.5015 Q278.4219 48.7671 278.4219 49.1733 Q278.4219 49.5796 278.7188 49.8765 Q279.0156 50.1733 279.4844 50.1733 Q280 50.1733 280.4844 49.8296 Q280.8281 49.564 280.9375 49.189 Q281.0156 48.9546 281.0156 48.2515 L281.0156 47.8765 ZM288.3281 44.0952 L288.3281 45.6265 L287.0156 45.6265 L287.0156 48.564 Q287.0156 49.439 287.0547 49.5874 Q287.0938 49.7358 287.2266 49.8374 Q287.3594 49.939 287.5625 49.939 Q287.8281 49.939 288.3281 49.7515 L288.4844 51.2358 Q287.8281 51.5327 286.9688 51.5327 Q286.4531 51.5327 286.0391 51.353 Q285.625 51.1733 285.4297 50.8999 Q285.2344 50.6265 285.1562 50.1577 Q285.0938 49.814 285.0938 48.7983 L285.0938 45.6265 L284.2188 45.6265 L284.2188 44.0952 L285.0938 44.0952 L285.0938 42.6577 L287.0156 41.5327 L287.0156 44.0952 L288.3281 44.0952 ZM290 43.1108 L290 41.3452 L291.9219 41.3452 L291.9219 43.1108 L290 43.1108 ZM290 51.3608 L290 44.0952 L291.9219 44.0952 L291.9219 51.3608 L290 51.3608 ZM293.5625 47.6265 Q293.5625 46.6733 294.0312 45.7749 Q294.5 44.8765 295.3672 44.4077 Q296.2344 43.939 297.2969 43.939 Q298.9531 43.939 300 45.0093 Q301.0469 46.0796 301.0469 47.7046 Q301.0469 49.3608 299.9844 50.4468 Q298.9219 51.5327 297.3125 51.5327 Q296.3125 51.5327 295.4062 51.0796 Q294.5 50.6265 294.0312 49.7515 Q293.5625 48.8765 293.5625 47.6265 ZM295.5312 47.7358 Q295.5312 48.814 296.0469 49.3843 Q296.5625 49.9546 297.3125 49.9546 Q298.0625 49.9546 298.5703 49.3843 Q299.0781 48.814 299.0781 47.7202 Q299.0781 46.6577 298.5703 46.0796 Q298.0625 45.5015 297.3125 45.5015 Q296.5625 45.5015 296.0469 46.0796 Q295.5312 46.6577 295.5312 47.7358 ZM309.6094 51.3608 L307.6875 51.3608 L307.6875 47.6577 Q307.6875 46.4858 307.5625 46.1343 Q307.4375 45.7827 307.1641 45.5952 Q306.8906 45.4077 306.5 45.4077 Q306 45.4077 305.6016 45.6812 Q305.2031 45.9546 305.0547 46.4077 Q304.9062 46.8608 304.9062 48.0796 L304.9062 51.3608 L302.9844 51.3608 L302.9844 44.0952 L304.7812 44.0952 L304.7812 45.1733 Q305.7188 43.939 307.1719 43.939 Q307.7969 43.939 308.3281 44.1655 Q308.8594 44.3921 309.125 44.7515 Q309.3906 45.1108 309.5 45.5562 Q309.6094 46.0015 309.6094 46.8452 L309.6094 51.3608 Z"
         clip-path="url(#clipPath1)"
         stroke="none"
         id="path63" />
      <ellipse
         clip-path="url(#clipPath1)"
         fill="rgb(178,178,178)"
         rx="105"
         cx="234"
         ry="24.5"
         cy="146.5"
         stroke="none"
         id="ellipse65" />
      <ellipse
         clip-path="url(#clipPath1)"
         fill="url(#linearGradient2)"
         rx="105"
         cx="231"
         ry="24.5"
         cy="143.5"
         stroke="none"
         id="ellipse67" />
      <ellipse
         clip-path="url(#clipPath1)"
         fill="none"
         rx="105"
         cx="231"
         ry="24.5"
         cy="143.5"
         stroke="rgb(102,102,71)"
         id="ellipse69" />
      <path
         fill="black"
         d="M157.7812 146.4978 L157.7812 138.6228 L160.1562 138.6228 L161.5938 143.9978 L163 138.6228 L165.3906 138.6228 L165.3906 146.4978 L163.9062 146.4978 L163.9062 140.2947 L162.3438 146.4978 L160.8125 146.4978 L159.25 140.2947 L159.25 146.4978 L157.7812 146.4978 ZM171.0938 144.6853 L172.5938 144.9353 Q172.3125 145.7634 171.6875 146.1931 Q171.0625 146.6228 170.1094 146.6228 Q168.625 146.6228 167.9062 145.6541 Q167.3438 144.8728 167.3438 143.6853 Q167.3438 142.2634 168.0859 141.4666 Q168.8281 140.6697 169.9688 140.6697 Q171.2344 140.6697 171.9688 141.5056 Q172.7031 142.3416 172.6719 144.0759 L168.8906 144.0759 Q168.9062 144.7478 169.2578 145.1228 Q169.6094 145.4978 170.125 145.4978 Q170.4844 145.4978 170.7266 145.3025 Q170.9688 145.1072 171.0938 144.6853 ZM171.1719 143.1541 Q171.1562 142.4978 170.8359 142.1619 Q170.5156 141.8259 170.0625 141.8259 Q169.5625 141.8259 169.2344 142.1853 Q168.9219 142.5447 168.9219 143.1541 L171.1719 143.1541 ZM174.2656 144.8728 L175.7656 144.6384 Q175.875 145.0759 176.1641 145.3025 Q176.4531 145.5291 176.9844 145.5291 Q177.5781 145.5291 177.875 145.3259 Q178.0781 145.1697 178.0781 144.9197 Q178.0781 144.7478 177.9688 144.6384 Q177.8438 144.5291 177.4531 144.4353 Q175.6406 144.0291 175.1406 143.7009 Q174.4688 143.2322 174.4688 142.4197 Q174.4688 141.6697 175.0547 141.1697 Q175.6406 140.6697 176.875 140.6697 Q178.0469 140.6697 178.6094 141.0447 Q179.1719 141.4197 179.3906 142.1697 L177.9688 142.4353 Q177.875 142.1072 177.625 141.9275 Q177.375 141.7478 176.8906 141.7478 Q176.2969 141.7478 176.0469 141.9197 Q175.875 142.0291 175.875 142.2166 Q175.875 142.3884 176.0156 142.4978 Q176.2188 142.6541 177.4297 142.9275 Q178.6406 143.2009 179.1094 143.5916 Q179.5938 143.9978 179.5938 144.7166 Q179.5938 145.4978 178.9375 146.0603 Q178.2812 146.6228 176.9844 146.6228 Q175.8281 146.6228 175.1484 146.1541 Q174.4688 145.6853 174.2656 144.8728 ZM185.5469 146.4978 L185.5469 145.6384 Q185.2344 146.1072 184.7266 146.365 Q184.2188 146.6228 183.6562 146.6228 Q183.0781 146.6228 182.625 146.3728 Q182.1719 146.1228 181.9609 145.6619 Q181.75 145.2009 181.75 144.4041 L181.75 140.7947 L183.2656 140.7947 L183.2656 143.4197 Q183.2656 144.6228 183.3516 144.8884 Q183.4375 145.1541 183.6562 145.3181 Q183.875 145.4822 184.2188 145.4822 Q184.5938 145.4822 184.9062 145.2712 Q185.2188 145.0603 185.3281 144.74 Q185.4375 144.4197 185.4375 143.2009 L185.4375 140.7947 L186.9531 140.7947 L186.9531 146.4978 L185.5469 146.4978 ZM190.2344 146.4978 L188.7188 146.4978 L188.7188 140.7947 L190.125 140.7947 L190.125 141.6072 Q190.4844 141.0291 190.7734 140.8494 Q191.0625 140.6697 191.4219 140.6697 Q191.9375 140.6697 192.4219 140.9509 L191.9531 142.2634 Q191.5781 142.0134 191.25 142.0134 Q190.9219 142.0134 190.7031 142.1931 Q190.4844 142.3728 190.3594 142.8259 Q190.2344 143.2791 190.2344 144.7322 L190.2344 146.4978 ZM197.0938 144.6853 L198.5938 144.9353 Q198.3125 145.7634 197.6875 146.1931 Q197.0625 146.6228 196.1094 146.6228 Q194.625 146.6228 193.9062 145.6541 Q193.3438 144.8728 193.3438 143.6853 Q193.3438 142.2634 194.0859 141.4666 Q194.8281 140.6697 195.9688 140.6697 Q197.2344 140.6697 197.9688 141.5056 Q198.7031 142.3416 198.6719 144.0759 L194.8906 144.0759 Q194.9062 144.7478 195.2578 145.1228 Q195.6094 145.4978 196.125 145.4978 Q196.4844 145.4978 196.7266 145.3025 Q196.9688 145.1072 197.0938 144.6853 ZM197.1719 143.1541 Q197.1562 142.4978 196.8359 142.1619 Q196.5156 141.8259 196.0625 141.8259 Q195.5625 141.8259 195.2344 142.1853 Q194.9219 142.5447 194.9219 143.1541 L197.1719 143.1541 ZM202.2344 146.4978 L200.7188 146.4978 L200.7188 140.7947 L202.125 140.7947 L202.125 141.6072 Q202.4844 141.0291 202.7734 140.8494 Q203.0625 140.6697 203.4219 140.6697 Q203.9375 140.6697 204.4219 140.9509 L203.9531 142.2634 Q203.5781 142.0134 203.25 142.0134 Q202.9219 142.0134 202.7031 142.1931 Q202.4844 142.3728 202.3594 142.8259 Q202.2344 143.2791 202.2344 144.7322 L202.2344 146.4978 ZM208.7969 146.4978 L208.7969 138.6228 L210.2969 138.6228 L210.2969 146.4978 L208.7969 146.4978 ZM212.9219 142.5291 L211.5469 142.2791 Q211.7812 141.4666 212.3438 141.0681 Q212.9062 140.6697 214.0156 140.6697 Q215.0312 140.6697 215.5234 140.9041 Q216.0156 141.1384 216.2188 141.5056 Q216.4219 141.8728 216.4219 142.8572 L216.4062 144.6228 Q216.4062 145.3728 216.4766 145.7322 Q216.5469 146.0916 216.75 146.4978 L215.25 146.4978 Q215.1875 146.3416 215.1094 146.0447 Q215.0781 145.9197 215.0625 145.8728 Q214.6719 146.2478 214.2266 146.4353 Q213.7812 146.6228 213.2812 146.6228 Q212.4062 146.6228 211.8984 146.1462 Q211.3906 145.6697 211.3906 144.9353 Q211.3906 144.4509 211.625 144.0759 Q211.8594 143.7009 212.2734 143.4978 Q212.6875 143.2947 213.4688 143.1384 Q214.5312 142.9509 214.9375 142.7791 L214.9375 142.6228 Q214.9375 142.1853 214.7188 142.0056 Q214.5 141.8259 213.9062 141.8259 Q213.5156 141.8259 213.2891 141.9822 Q213.0625 142.1384 212.9219 142.5291 ZM214.9375 143.7634 Q214.6406 143.8572 214.0156 143.99 Q213.3906 144.1228 213.2031 144.2478 Q212.9062 144.4666 212.9062 144.7791 Q212.9062 145.1072 213.1406 145.3337 Q213.375 145.5603 213.7344 145.5603 Q214.1406 145.5603 214.5156 145.2947 Q214.7969 145.0916 214.875 144.7947 Q214.9375 144.6072 214.9375 144.0603 L214.9375 143.7634 ZM222.3594 146.4978 L220.0625 140.7947 L221.6406 140.7947 L222.7188 143.7009 L223.0312 144.6697 Q223.1562 144.3103 223.1875 144.1853 Q223.2656 143.9509 223.3438 143.7009 L224.4375 140.7947 L225.9844 140.7947 L223.7188 146.4978 L222.3594 146.4978 ZM226.7969 140.0134 L226.7969 138.6228 L228.2969 138.6228 L228.2969 140.0134 L226.7969 140.0134 ZM226.7969 146.4978 L226.7969 140.7947 L228.2969 140.7947 L228.2969 146.4978 L226.7969 146.4978 ZM232.4062 140.7947 L232.4062 141.9978 L231.375 141.9978 L231.375 144.2947 Q231.375 144.9978 231.4062 145.115 Q231.4375 145.2322 231.5391 145.3025 Q231.6406 145.3728 231.7969 145.3728 Q232 145.3728 232.4062 145.2322 L232.5312 146.4041 Q232 146.6228 231.3438 146.6228 Q230.9219 146.6228 230.5938 146.49 Q230.2656 146.3572 230.1172 146.1384 Q229.9688 145.9197 229.9062 145.5447 Q229.8594 145.2791 229.8594 144.4822 L229.8594 141.9978 L229.1719 141.9978 L229.1719 140.7947 L229.8594 140.7947 L229.8594 139.6541 L231.375 138.7791 L231.375 140.7947 L232.4062 140.7947 ZM237.0938 144.6853 L238.5938 144.9353 Q238.3125 145.7634 237.6875 146.1931 Q237.0625 146.6228 236.1094 146.6228 Q234.625 146.6228 233.9062 145.6541 Q233.3438 144.8728 233.3438 143.6853 Q233.3438 142.2634 234.0859 141.4666 Q234.8281 140.6697 235.9688 140.6697 Q237.2344 140.6697 237.9688 141.5056 Q238.7031 142.3416 238.6719 144.0759 L234.8906 144.0759 Q234.9062 144.7478 235.2578 145.1228 Q235.6094 145.4978 236.125 145.4978 Q236.4844 145.4978 236.7266 145.3025 Q236.9688 145.1072 237.0938 144.6853 ZM237.1719 143.1541 Q237.1562 142.4978 236.8359 142.1619 Q236.5156 141.8259 236.0625 141.8259 Q235.5625 141.8259 235.2344 142.1853 Q234.9219 142.5447 234.9219 143.1541 L237.1719 143.1541 ZM240.2656 144.8728 L241.7656 144.6384 Q241.875 145.0759 242.1641 145.3025 Q242.4531 145.5291 242.9844 145.5291 Q243.5781 145.5291 243.875 145.3259 Q244.0781 145.1697 244.0781 144.9197 Q244.0781 144.7478 243.9688 144.6384 Q243.8438 144.5291 243.4531 144.4353 Q241.6406 144.0291 241.1406 143.7009 Q240.4688 143.2322 240.4688 142.4197 Q240.4688 141.6697 241.0547 141.1697 Q241.6406 140.6697 242.875 140.6697 Q244.0469 140.6697 244.6094 141.0447 Q245.1719 141.4197 245.3906 142.1697 L243.9688 142.4353 Q243.875 142.1072 243.625 141.9275 Q243.375 141.7478 242.8906 141.7478 Q242.2969 141.7478 242.0469 141.9197 Q241.875 142.0291 241.875 142.2166 Q241.875 142.3884 242.0156 142.4978 Q242.2188 142.6541 243.4297 142.9275 Q244.6406 143.2009 245.1094 143.5916 Q245.5938 143.9978 245.5938 144.7166 Q245.5938 145.4978 244.9375 146.0603 Q244.2812 146.6228 242.9844 146.6228 Q241.8281 146.6228 241.1484 146.1541 Q240.4688 145.6853 240.2656 144.8728 ZM247.2656 144.8728 L248.7656 144.6384 Q248.875 145.0759 249.1641 145.3025 Q249.4531 145.5291 249.9844 145.5291 Q250.5781 145.5291 250.875 145.3259 Q251.0781 145.1697 251.0781 144.9197 Q251.0781 144.7478 250.9688 144.6384 Q250.8438 144.5291 250.4531 144.4353 Q248.6406 144.0291 248.1406 143.7009 Q247.4688 143.2322 247.4688 142.4197 Q247.4688 141.6697 248.0547 141.1697 Q248.6406 140.6697 249.875 140.6697 Q251.0469 140.6697 251.6094 141.0447 Q252.1719 141.4197 252.3906 142.1697 L250.9688 142.4353 Q250.875 142.1072 250.625 141.9275 Q250.375 141.7478 249.8906 141.7478 Q249.2969 141.7478 249.0469 141.9197 Q248.875 142.0291 248.875 142.2166 Q248.875 142.3884 249.0156 142.4978 Q249.2188 142.6541 250.4297 142.9275 Q251.6406 143.2009 252.1094 143.5916 Q252.5938 143.9978 252.5938 144.7166 Q252.5938 145.4978 251.9375 146.0603 Q251.2812 146.6228 249.9844 146.6228 Q248.8281 146.6228 248.1484 146.1541 Q247.4688 145.6853 247.2656 144.8728 ZM258.0938 144.6853 L259.5938 144.9353 Q259.3125 145.7634 258.6875 146.1931 Q258.0625 146.6228 257.1094 146.6228 Q255.625 146.6228 254.9062 145.6541 Q254.3438 144.8728 254.3438 143.6853 Q254.3438 142.2634 255.0859 141.4666 Q255.8281 140.6697 256.9688 140.6697 Q258.2344 140.6697 258.9688 141.5056 Q259.7031 142.3416 259.6719 144.0759 L255.8906 144.0759 Q255.9062 144.7478 256.2578 145.1228 Q256.6094 145.4978 257.125 145.4978 Q257.4844 145.4978 257.7266 145.3025 Q257.9688 145.1072 258.0938 144.6853 ZM258.1719 143.1541 Q258.1562 142.4978 257.8359 142.1619 Q257.5156 141.8259 257.0625 141.8259 Q256.5625 141.8259 256.2344 142.1853 Q255.9219 142.5447 255.9219 143.1541 L258.1719 143.1541 ZM270.0156 146.4978 L268.625 146.4978 L268.625 145.6541 Q268.2656 146.1541 267.7891 146.3884 Q267.3125 146.6228 266.8438 146.6228 Q265.8594 146.6228 265.1562 145.8337 Q264.4531 145.0447 264.4531 143.6228 Q264.4531 142.1697 265.1328 141.4197 Q265.8125 140.6697 266.8594 140.6697 Q267.8125 140.6697 268.5156 141.4666 L268.5156 138.6228 L270.0156 138.6228 L270.0156 146.4978 ZM266 143.5291 Q266 144.4353 266.25 144.8416 Q266.6094 145.4353 267.2656 145.4353 Q267.7812 145.4353 268.1484 144.99 Q268.5156 144.5447 268.5156 143.6697 Q268.5156 142.6853 268.1641 142.2556 Q267.8125 141.8259 267.25 141.8259 Q266.7188 141.8259 266.3594 142.2478 Q266 142.6697 266 143.5291 ZM275.5469 146.4978 L275.5469 145.6384 Q275.2344 146.1072 274.7266 146.365 Q274.2188 146.6228 273.6562 146.6228 Q273.0781 146.6228 272.625 146.3728 Q272.1719 146.1228 271.9609 145.6619 Q271.75 145.2009 271.75 144.4041 L271.75 140.7947 L273.2656 140.7947 L273.2656 143.4197 Q273.2656 144.6228 273.3516 144.8884 Q273.4375 145.1541 273.6562 145.3181 Q273.875 145.4822 274.2188 145.4822 Q274.5938 145.4822 274.9062 145.2712 Q275.2188 145.0603 275.3281 144.74 Q275.4375 144.4197 275.4375 143.2009 L275.4375 140.7947 L276.9531 140.7947 L276.9531 146.4978 L275.5469 146.4978 ZM283.3594 146.4978 L281.0625 140.7947 L282.6406 140.7947 L283.7188 143.7009 L284.0312 144.6697 Q284.1562 144.3103 284.1875 144.1853 Q284.2656 143.9509 284.3438 143.7009 L285.4375 140.7947 L286.9844 140.7947 L284.7188 146.4978 L283.3594 146.4978 ZM291.0938 144.6853 L292.5938 144.9353 Q292.3125 145.7634 291.6875 146.1931 Q291.0625 146.6228 290.1094 146.6228 Q288.625 146.6228 287.9062 145.6541 Q287.3438 144.8728 287.3438 143.6853 Q287.3438 142.2634 288.0859 141.4666 Q288.8281 140.6697 289.9688 140.6697 Q291.2344 140.6697 291.9688 141.5056 Q292.7031 142.3416 292.6719 144.0759 L288.8906 144.0759 Q288.9062 144.7478 289.2578 145.1228 Q289.6094 145.4978 290.125 145.4978 Q290.4844 145.4978 290.7266 145.3025 Q290.9688 145.1072 291.0938 144.6853 ZM291.1719 143.1541 Q291.1562 142.4978 290.8359 142.1619 Q290.5156 141.8259 290.0625 141.8259 Q289.5625 141.8259 289.2344 142.1853 Q288.9219 142.5447 288.9219 143.1541 L291.1719 143.1541 ZM299.9844 146.4978 L298.4688 146.4978 L298.4688 143.5916 Q298.4688 142.6697 298.375 142.3962 Q298.2812 142.1228 298.0625 141.9744 Q297.8438 141.8259 297.5312 141.8259 Q297.1406 141.8259 296.8281 142.0369 Q296.5156 142.2478 296.3984 142.5994 Q296.2812 142.9509 296.2812 143.9197 L296.2812 146.4978 L294.7812 146.4978 L294.7812 140.7947 L296.1875 140.7947 L296.1875 141.6384 Q296.9219 140.6697 298.0625 140.6697 Q298.5625 140.6697 298.9766 140.8494 Q299.3906 141.0291 299.6016 141.3025 Q299.8125 141.5759 299.8984 141.9353 Q299.9844 142.2947 299.9844 142.9509 L299.9844 146.4978 ZM304.4062 140.7947 L304.4062 141.9978 L303.375 141.9978 L303.375 144.2947 Q303.375 144.9978 303.4062 145.115 Q303.4375 145.2322 303.5391 145.3025 Q303.6406 145.3728 303.7969 145.3728 Q304 145.3728 304.4062 145.2322 L304.5312 146.4041 Q304 146.6228 303.3438 146.6228 Q302.9219 146.6228 302.5938 146.49 Q302.2656 146.3572 302.1172 146.1384 Q301.9688 145.9197 301.9062 145.5447 Q301.8594 145.2791 301.8594 144.4822 L301.8594 141.9978 L301.1719 141.9978 L301.1719 140.7947 L301.8594 140.7947 L301.8594 139.6541 L303.375 138.7791 L303.375 140.7947 L304.4062 140.7947 Z"
         clip-path="url(#clipPath1)"
         stroke="none"
         id="path71" />
      <ellipse
         clip-path="url(#clipPath1)"
         fill="rgb(178,178,178)"
         rx="105"
         cx="234"
         ry="24.5"
         cy="90.5"
         stroke="none"
         id="ellipse73" />
      <ellipse
         clip-path="url(#clipPath1)"
         fill="url(#linearGradient3)"
         rx="105"
         cx="231"
         ry="24.5"
         cy="87.5"
         stroke="none"
         id="ellipse75" />
      <ellipse
         clip-path="url(#clipPath1)"
         fill="none"
         rx="105"
         cx="231"
         ry="24.5"
         cy="87.5"
         stroke="rgb(102,102,71)"
         id="ellipse77" />
      <path
         fill="black"
         d="M150.7812 90.4978 L150.7812 82.6228 L153.1562 82.6228 L154.5938 87.9978 L156 82.6228 L158.3906 82.6228 L158.3906 90.4978 L156.9062 90.4978 L156.9062 84.2947 L155.3438 90.4978 L153.8125 90.4978 L152.25 84.2947 L152.25 90.4978 L150.7812 90.4978 ZM164.0938 88.6853 L165.5938 88.9353 Q165.3125 89.7634 164.6875 90.1931 Q164.0625 90.6228 163.1094 90.6228 Q161.625 90.6228 160.9062 89.6541 Q160.3438 88.8728 160.3438 87.6853 Q160.3438 86.2634 161.0859 85.4666 Q161.8281 84.6697 162.9688 84.6697 Q164.2344 84.6697 164.9688 85.5056 Q165.7031 86.3416 165.6719 88.0759 L161.8906 88.0759 Q161.9062 88.7478 162.2578 89.1228 Q162.6094 89.4978 163.125 89.4978 Q163.4844 89.4978 163.7266 89.3025 Q163.9688 89.1072 164.0938 88.6853 ZM164.1719 87.1541 Q164.1562 86.4978 163.8359 86.1619 Q163.5156 85.8259 163.0625 85.8259 Q162.5625 85.8259 162.2344 86.1853 Q161.9219 86.5447 161.9219 87.1541 L164.1719 87.1541 ZM167.2656 88.8728 L168.7656 88.6384 Q168.875 89.0759 169.1641 89.3025 Q169.4531 89.5291 169.9844 89.5291 Q170.5781 89.5291 170.875 89.3259 Q171.0781 89.1697 171.0781 88.9197 Q171.0781 88.7478 170.9688 88.6384 Q170.8438 88.5291 170.4531 88.4353 Q168.6406 88.0291 168.1406 87.7009 Q167.4688 87.2322 167.4688 86.4197 Q167.4688 85.6697 168.0547 85.1697 Q168.6406 84.6697 169.875 84.6697 Q171.0469 84.6697 171.6094 85.0447 Q172.1719 85.4197 172.3906 86.1697 L170.9688 86.4353 Q170.875 86.1072 170.625 85.9275 Q170.375 85.7478 169.8906 85.7478 Q169.2969 85.7478 169.0469 85.9197 Q168.875 86.0291 168.875 86.2166 Q168.875 86.3884 169.0156 86.4978 Q169.2188 86.6541 170.4297 86.9275 Q171.6406 87.2009 172.1094 87.5916 Q172.5938 87.9978 172.5938 88.7166 Q172.5938 89.4978 171.9375 90.0603 Q171.2812 90.6228 169.9844 90.6228 Q168.8281 90.6228 168.1484 90.1541 Q167.4688 89.6853 167.2656 88.8728 ZM178.5469 90.4978 L178.5469 89.6384 Q178.2344 90.1072 177.7266 90.365 Q177.2188 90.6228 176.6562 90.6228 Q176.0781 90.6228 175.625 90.3728 Q175.1719 90.1228 174.9609 89.6619 Q174.75 89.2009 174.75 88.4041 L174.75 84.7947 L176.2656 84.7947 L176.2656 87.4197 Q176.2656 88.6228 176.3516 88.8884 Q176.4375 89.1541 176.6562 89.3181 Q176.875 89.4822 177.2188 89.4822 Q177.5938 89.4822 177.9062 89.2712 Q178.2188 89.0603 178.3281 88.74 Q178.4375 88.4197 178.4375 87.2009 L178.4375 84.7947 L179.9531 84.7947 L179.9531 90.4978 L178.5469 90.4978 ZM183.2344 90.4978 L181.7188 90.4978 L181.7188 84.7947 L183.125 84.7947 L183.125 85.6072 Q183.4844 85.0291 183.7734 84.8494 Q184.0625 84.6697 184.4219 84.6697 Q184.9375 84.6697 185.4219 84.9509 L184.9531 86.2634 Q184.5781 86.0134 184.25 86.0134 Q183.9219 86.0134 183.7031 86.1931 Q183.4844 86.3728 183.3594 86.8259 Q183.2344 87.2791 183.2344 88.7322 L183.2344 90.4978 ZM190.0938 88.6853 L191.5938 88.9353 Q191.3125 89.7634 190.6875 90.1931 Q190.0625 90.6228 189.1094 90.6228 Q187.625 90.6228 186.9062 89.6541 Q186.3438 88.8728 186.3438 87.6853 Q186.3438 86.2634 187.0859 85.4666 Q187.8281 84.6697 188.9688 84.6697 Q190.2344 84.6697 190.9688 85.5056 Q191.7031 86.3416 191.6719 88.0759 L187.8906 88.0759 Q187.9062 88.7478 188.2578 89.1228 Q188.6094 89.4978 189.125 89.4978 Q189.4844 89.4978 189.7266 89.3025 Q189.9688 89.1072 190.0938 88.6853 ZM190.1719 87.1541 Q190.1562 86.4978 189.8359 86.1619 Q189.5156 85.8259 189.0625 85.8259 Q188.5625 85.8259 188.2344 86.1853 Q187.9219 86.5447 187.9219 87.1541 L190.1719 87.1541 ZM195.2344 90.4978 L193.7188 90.4978 L193.7188 84.7947 L195.125 84.7947 L195.125 85.6072 Q195.4844 85.0291 195.7734 84.8494 Q196.0625 84.6697 196.4219 84.6697 Q196.9375 84.6697 197.4219 84.9509 L196.9531 86.2634 Q196.5781 86.0134 196.25 86.0134 Q195.9219 86.0134 195.7031 86.1931 Q195.4844 86.3728 195.3594 86.8259 Q195.2344 87.2791 195.2344 88.7322 L195.2344 90.4978 ZM201.7969 90.4978 L201.7969 82.6228 L203.2969 82.6228 L203.2969 90.4978 L201.7969 90.4978 ZM204.7812 85.4197 L204.5 83.9509 L204.5 82.6228 L206.1406 82.6228 L206.1406 83.9509 L205.8906 85.4197 L204.7812 85.4197 ZM207.4375 87.5603 Q207.4375 86.8103 207.8125 86.1072 Q208.1875 85.4041 208.8672 85.0369 Q209.5469 84.6697 210.375 84.6697 Q211.6719 84.6697 212.5 85.5056 Q213.3281 86.3416 213.3281 87.6228 Q213.3281 88.9197 212.4922 89.7712 Q211.6562 90.6228 210.3906 90.6228 Q209.6094 90.6228 208.8984 90.2712 Q208.1875 89.9197 207.8125 89.2322 Q207.4375 88.5447 207.4375 87.5603 ZM208.9844 87.6384 Q208.9844 88.4978 209.3906 88.9509 Q209.7969 89.4041 210.3906 89.4041 Q210.9688 89.4041 211.375 88.9509 Q211.7812 88.4978 211.7812 87.6384 Q211.7812 86.7947 211.375 86.3416 Q210.9688 85.8884 210.3906 85.8884 Q209.7969 85.8884 209.3906 86.3416 Q208.9844 86.7947 208.9844 87.6384 ZM216.2344 90.4978 L214.7188 90.4978 L214.7188 84.7947 L216.125 84.7947 L216.125 85.6072 Q216.4844 85.0291 216.7734 84.8494 Q217.0625 84.6697 217.4219 84.6697 Q217.9375 84.6697 218.4219 84.9509 L217.9531 86.2634 Q217.5781 86.0134 217.25 86.0134 Q216.9219 86.0134 216.7031 86.1931 Q216.4844 86.3728 216.3594 86.8259 Q216.2344 87.2791 216.2344 88.7322 L216.2344 90.4978 ZM219.7969 84.0134 L219.7969 82.6228 L221.2969 82.6228 L221.2969 84.0134 L219.7969 84.0134 ZM219.7969 90.4978 L219.7969 84.7947 L221.2969 84.7947 L221.2969 90.4978 L219.7969 90.4978 ZM226.0938 88.6853 L227.5938 88.9353 Q227.3125 89.7634 226.6875 90.1931 Q226.0625 90.6228 225.1094 90.6228 Q223.625 90.6228 222.9062 89.6541 Q222.3438 88.8728 222.3438 87.6853 Q222.3438 86.2634 223.0859 85.4666 Q223.8281 84.6697 224.9688 84.6697 Q226.2344 84.6697 226.9688 85.5056 Q227.7031 86.3416 227.6719 88.0759 L223.8906 88.0759 Q223.9062 88.7478 224.2578 89.1228 Q224.6094 89.4978 225.125 89.4978 Q225.4844 89.4978 225.7266 89.3025 Q225.9688 89.1072 226.0938 88.6853 ZM226.1719 87.1541 Q226.1562 86.4978 225.8359 86.1619 Q225.5156 85.8259 225.0625 85.8259 Q224.5625 85.8259 224.2344 86.1853 Q223.9219 86.5447 223.9219 87.1541 L226.1719 87.1541 ZM234.9844 90.4978 L233.4688 90.4978 L233.4688 87.5916 Q233.4688 86.6697 233.375 86.3962 Q233.2812 86.1228 233.0625 85.9744 Q232.8438 85.8259 232.5312 85.8259 Q232.1406 85.8259 231.8281 86.0369 Q231.5156 86.2478 231.3984 86.5994 Q231.2812 86.9509 231.2812 87.9197 L231.2812 90.4978 L229.7812 90.4978 L229.7812 84.7947 L231.1875 84.7947 L231.1875 85.6384 Q231.9219 84.6697 233.0625 84.6697 Q233.5625 84.6697 233.9766 84.8494 Q234.3906 85.0291 234.6016 85.3025 Q234.8125 85.5759 234.8984 85.9353 Q234.9844 86.2947 234.9844 86.9509 L234.9844 90.4978 ZM239.4062 84.7947 L239.4062 85.9978 L238.375 85.9978 L238.375 88.2947 Q238.375 88.9978 238.4062 89.115 Q238.4375 89.2322 238.5391 89.3025 Q238.6406 89.3728 238.7969 89.3728 Q239 89.3728 239.4062 89.2322 L239.5312 90.4041 Q239 90.6228 238.3438 90.6228 Q237.9219 90.6228 237.5938 90.49 Q237.2656 90.3572 237.1172 90.1384 Q236.9688 89.9197 236.9062 89.5447 Q236.8594 89.2791 236.8594 88.4822 L236.8594 85.9978 L236.1719 85.9978 L236.1719 84.7947 L236.8594 84.7947 L236.8594 83.6541 L238.375 82.7791 L238.375 84.7947 L239.4062 84.7947 ZM241.9219 86.5291 L240.5469 86.2791 Q240.7812 85.4666 241.3438 85.0681 Q241.9062 84.6697 243.0156 84.6697 Q244.0312 84.6697 244.5234 84.9041 Q245.0156 85.1384 245.2188 85.5056 Q245.4219 85.8728 245.4219 86.8572 L245.4062 88.6228 Q245.4062 89.3728 245.4766 89.7322 Q245.5469 90.0916 245.75 90.4978 L244.25 90.4978 Q244.1875 90.3416 244.1094 90.0447 Q244.0781 89.9197 244.0625 89.8728 Q243.6719 90.2478 243.2266 90.4353 Q242.7812 90.6228 242.2812 90.6228 Q241.4062 90.6228 240.8984 90.1462 Q240.3906 89.6697 240.3906 88.9353 Q240.3906 88.4509 240.625 88.0759 Q240.8594 87.7009 241.2734 87.4978 Q241.6875 87.2947 242.4688 87.1384 Q243.5312 86.9509 243.9375 86.7791 L243.9375 86.6228 Q243.9375 86.1853 243.7188 86.0056 Q243.5 85.8259 242.9062 85.8259 Q242.5156 85.8259 242.2891 85.9822 Q242.0625 86.1384 241.9219 86.5291 ZM243.9375 87.7634 Q243.6406 87.8572 243.0156 87.99 Q242.3906 88.1228 242.2031 88.2478 Q241.9062 88.4666 241.9062 88.7791 Q241.9062 89.1072 242.1406 89.3337 Q242.375 89.5603 242.7344 89.5603 Q243.1406 89.5603 243.5156 89.2947 Q243.7969 89.0916 243.875 88.7947 Q243.9375 88.6072 243.9375 88.0603 L243.9375 87.7634 ZM249.4062 84.7947 L249.4062 85.9978 L248.375 85.9978 L248.375 88.2947 Q248.375 88.9978 248.4062 89.115 Q248.4375 89.2322 248.5391 89.3025 Q248.6406 89.3728 248.7969 89.3728 Q249 89.3728 249.4062 89.2322 L249.5312 90.4041 Q249 90.6228 248.3438 90.6228 Q247.9219 90.6228 247.5938 90.49 Q247.2656 90.3572 247.1172 90.1384 Q246.9688 89.9197 246.9062 89.5447 Q246.8594 89.2791 246.8594 88.4822 L246.8594 85.9978 L246.1719 85.9978 L246.1719 84.7947 L246.8594 84.7947 L246.8594 83.6541 L248.375 82.7791 L248.375 84.7947 L249.4062 84.7947 ZM250.7969 84.0134 L250.7969 82.6228 L252.2969 82.6228 L252.2969 84.0134 L250.7969 84.0134 ZM250.7969 90.4978 L250.7969 84.7947 L252.2969 84.7947 L252.2969 90.4978 L250.7969 90.4978 ZM253.4375 87.5603 Q253.4375 86.8103 253.8125 86.1072 Q254.1875 85.4041 254.8672 85.0369 Q255.5469 84.6697 256.375 84.6697 Q257.6719 84.6697 258.5 85.5056 Q259.3281 86.3416 259.3281 87.6228 Q259.3281 88.9197 258.4922 89.7712 Q257.6562 90.6228 256.3906 90.6228 Q255.6094 90.6228 254.8984 90.2712 Q254.1875 89.9197 253.8125 89.2322 Q253.4375 88.5447 253.4375 87.5603 ZM254.9844 87.6384 Q254.9844 88.4978 255.3906 88.9509 Q255.7969 89.4041 256.3906 89.4041 Q256.9688 89.4041 257.375 88.9509 Q257.7812 88.4978 257.7812 87.6384 Q257.7812 86.7947 257.375 86.3416 Q256.9688 85.8884 256.3906 85.8884 Q255.7969 85.8884 255.3906 86.3416 Q254.9844 86.7947 254.9844 87.6384 ZM265.9844 90.4978 L264.4688 90.4978 L264.4688 87.5916 Q264.4688 86.6697 264.375 86.3962 Q264.2812 86.1228 264.0625 85.9744 Q263.8438 85.8259 263.5312 85.8259 Q263.1406 85.8259 262.8281 86.0369 Q262.5156 86.2478 262.3984 86.5994 Q262.2812 86.9509 262.2812 87.9197 L262.2812 90.4978 L260.7812 90.4978 L260.7812 84.7947 L262.1875 84.7947 L262.1875 85.6384 Q262.9219 84.6697 264.0625 84.6697 Q264.5625 84.6697 264.9766 84.8494 Q265.3906 85.0291 265.6016 85.3025 Q265.8125 85.5759 265.8984 85.9353 Q265.9844 86.2947 265.9844 86.9509 L265.9844 90.4978 ZM276.0156 90.4978 L274.625 90.4978 L274.625 89.6541 Q274.2656 90.1541 273.7891 90.3884 Q273.3125 90.6228 272.8438 90.6228 Q271.8594 90.6228 271.1562 89.8337 Q270.4531 89.0447 270.4531 87.6228 Q270.4531 86.1697 271.1328 85.4197 Q271.8125 84.6697 272.8594 84.6697 Q273.8125 84.6697 274.5156 85.4666 L274.5156 82.6228 L276.0156 82.6228 L276.0156 90.4978 ZM272 87.5291 Q272 88.4353 272.25 88.8416 Q272.6094 89.4353 273.2656 89.4353 Q273.7812 89.4353 274.1484 88.99 Q274.5156 88.5447 274.5156 87.6697 Q274.5156 86.6853 274.1641 86.2556 Q273.8125 85.8259 273.25 85.8259 Q272.7188 85.8259 272.3594 86.2478 Q272 86.6697 272 87.5291 ZM281.5469 90.4978 L281.5469 89.6384 Q281.2344 90.1072 280.7266 90.365 Q280.2188 90.6228 279.6562 90.6228 Q279.0781 90.6228 278.625 90.3728 Q278.1719 90.1228 277.9609 89.6619 Q277.75 89.2009 277.75 88.4041 L277.75 84.7947 L279.2656 84.7947 L279.2656 87.4197 Q279.2656 88.6228 279.3516 88.8884 Q279.4375 89.1541 279.6562 89.3181 Q279.875 89.4822 280.2188 89.4822 Q280.5938 89.4822 280.9062 89.2712 Q281.2188 89.0603 281.3281 88.74 Q281.4375 88.4197 281.4375 87.2009 L281.4375 84.7947 L282.9531 84.7947 L282.9531 90.4978 L281.5469 90.4978 ZM289.3594 90.4978 L287.0625 84.7947 L288.6406 84.7947 L289.7188 87.7009 L290.0312 88.6697 Q290.1562 88.3103 290.1875 88.1853 Q290.2656 87.9509 290.3438 87.7009 L291.4375 84.7947 L292.9844 84.7947 L290.7188 90.4978 L289.3594 90.4978 ZM297.0938 88.6853 L298.5938 88.9353 Q298.3125 89.7634 297.6875 90.1931 Q297.0625 90.6228 296.1094 90.6228 Q294.625 90.6228 293.9062 89.6541 Q293.3438 88.8728 293.3438 87.6853 Q293.3438 86.2634 294.0859 85.4666 Q294.8281 84.6697 295.9688 84.6697 Q297.2344 84.6697 297.9688 85.5056 Q298.7031 86.3416 298.6719 88.0759 L294.8906 88.0759 Q294.9062 88.7478 295.2578 89.1228 Q295.6094 89.4978 296.125 89.4978 Q296.4844 89.4978 296.7266 89.3025 Q296.9688 89.1072 297.0938 88.6853 ZM297.1719 87.1541 Q297.1562 86.4978 296.8359 86.1619 Q296.5156 85.8259 296.0625 85.8259 Q295.5625 85.8259 295.2344 86.1853 Q294.9219 86.5447 294.9219 87.1541 L297.1719 87.1541 ZM305.9844 90.4978 L304.4688 90.4978 L304.4688 87.5916 Q304.4688 86.6697 304.375 86.3962 Q304.2812 86.1228 304.0625 85.9744 Q303.8438 85.8259 303.5312 85.8259 Q303.1406 85.8259 302.8281 86.0369 Q302.5156 86.2478 302.3984 86.5994 Q302.2812 86.9509 302.2812 87.9197 L302.2812 90.4978 L300.7812 90.4978 L300.7812 84.7947 L302.1875 84.7947 L302.1875 85.6384 Q302.9219 84.6697 304.0625 84.6697 Q304.5625 84.6697 304.9766 84.8494 Q305.3906 85.0291 305.6016 85.3025 Q305.8125 85.5759 305.8984 85.9353 Q305.9844 86.2947 305.9844 86.9509 L305.9844 90.4978 ZM310.4062 84.7947 L310.4062 85.9978 L309.375 85.9978 L309.375 88.2947 Q309.375 88.9978 309.4062 89.115 Q309.4375 89.2322 309.5391 89.3025 Q309.6406 89.3728 309.7969 89.3728 Q310 89.3728 310.4062 89.2322 L310.5312 90.4041 Q310 90.6228 309.3438 90.6228 Q308.9219 90.6228 308.5938 90.49 Q308.2656 90.3572 308.1172 90.1384 Q307.9688 89.9197 307.9062 89.5447 Q307.8594 89.2791 307.8594 88.4822 L307.8594 85.9978 L307.1719 85.9978 L307.1719 84.7947 L307.8594 84.7947 L307.8594 83.6541 L309.375 82.7791 L309.375 84.7947 L310.4062 84.7947 Z"
         clip-path="url(#clipPath1)"
         stroke="none"
         id="path79" />
      <path
         fill="black"
         d="M17.8125 128.4978 L17.8125 120.6228 L19.3594 120.6228 L22.5938 125.8884 L22.5938 120.6228 L24.0625 120.6228 L24.0625 128.4978 L22.4688 128.4978 L19.2969 123.3572 L19.2969 128.4978 L17.8125 128.4978 ZM25.9219 124.5291 L24.5469 124.2791 Q24.7812 123.4666 25.3438 123.0681 Q25.9062 122.6697 27.0156 122.6697 Q28.0312 122.6697 28.5234 122.9041 Q29.0156 123.1384 29.2188 123.5056 Q29.4219 123.8728 29.4219 124.8572 L29.4062 126.6228 Q29.4062 127.3728 29.4766 127.7322 Q29.5469 128.0916 29.75 128.4978 L28.25 128.4978 Q28.1875 128.3416 28.1094 128.0447 Q28.0781 127.9197 28.0625 127.8728 Q27.6719 128.2478 27.2266 128.4353 Q26.7812 128.6228 26.2812 128.6228 Q25.4062 128.6228 24.8984 128.1462 Q24.3906 127.6697 24.3906 126.9353 Q24.3906 126.4509 24.625 126.0759 Q24.8594 125.7009 25.2734 125.4978 Q25.6875 125.2947 26.4688 125.1384 Q27.5312 124.9509 27.9375 124.7791 L27.9375 124.6228 Q27.9375 124.1853 27.7188 124.0056 Q27.5 123.8259 26.9062 123.8259 Q26.5156 123.8259 26.2891 123.9822 Q26.0625 124.1384 25.9219 124.5291 ZM27.9375 125.7634 Q27.6406 125.8572 27.0156 125.99 Q26.3906 126.1228 26.2031 126.2478 Q25.9062 126.4666 25.9062 126.7791 Q25.9062 127.1072 26.1406 127.3337 Q26.375 127.5603 26.7344 127.5603 Q27.1406 127.5603 27.5156 127.2947 Q27.7969 127.0916 27.875 126.7947 Q27.9375 126.6072 27.9375 126.0603 L27.9375 125.7634 ZM32.3594 128.4978 L30.0625 122.7947 L31.6406 122.7947 L32.7188 125.7009 L33.0312 126.6697 Q33.1562 126.3103 33.1875 126.1853 Q33.2656 125.9509 33.3438 125.7009 L34.4375 122.7947 L35.9844 122.7947 L33.7188 128.4978 L32.3594 128.4978 ZM36.7969 122.0134 L36.7969 120.6228 L38.2969 120.6228 L38.2969 122.0134 L36.7969 122.0134 ZM36.7969 128.4978 L36.7969 122.7947 L38.2969 122.7947 L38.2969 128.4978 L36.7969 128.4978 ZM39.6562 128.8728 L41.375 129.0759 Q41.4219 129.3884 41.5781 129.4978 Q41.7812 129.6541 42.25 129.6541 Q42.8438 129.6541 43.1406 129.4822 Q43.3281 129.3572 43.4375 129.1072 Q43.5 128.9041 43.5 128.4041 L43.5 127.5759 Q42.8281 128.4978 41.7969 128.4978 Q40.6562 128.4978 39.9844 127.5291 Q39.4531 126.7634 39.4531 125.6072 Q39.4531 124.1853 40.1406 123.4275 Q40.8281 122.6697 41.8594 122.6697 Q42.9219 122.6697 43.6094 123.5916 L43.6094 122.7947 L45.0156 122.7947 L45.0156 127.9197 Q45.0156 128.9197 44.8516 129.4197 Q44.6875 129.9197 44.3828 130.2087 Q44.0781 130.4978 43.5781 130.6541 Q43.0781 130.8103 42.3125 130.8103 Q40.8594 130.8103 40.25 130.3181 Q39.6406 129.8259 39.6406 129.0603 Q39.6406 128.9822 39.6562 128.8728 ZM41 125.5291 Q41 126.4353 41.3516 126.8572 Q41.7031 127.2791 42.2188 127.2791 Q42.7656 127.2791 43.1484 126.8494 Q43.5312 126.4197 43.5312 125.5603 Q43.5312 124.6853 43.1641 124.2556 Q42.7969 123.8259 42.25 123.8259 Q41.7031 123.8259 41.3516 124.2478 Q41 124.6697 41 125.5291 ZM47.9219 124.5291 L46.5469 124.2791 Q46.7812 123.4666 47.3438 123.0681 Q47.9062 122.6697 49.0156 122.6697 Q50.0312 122.6697 50.5234 122.9041 Q51.0156 123.1384 51.2188 123.5056 Q51.4219 123.8728 51.4219 124.8572 L51.4062 126.6228 Q51.4062 127.3728 51.4766 127.7322 Q51.5469 128.0916 51.75 128.4978 L50.25 128.4978 Q50.1875 128.3416 50.1094 128.0447 Q50.0781 127.9197 50.0625 127.8728 Q49.6719 128.2478 49.2266 128.4353 Q48.7812 128.6228 48.2812 128.6228 Q47.4062 128.6228 46.8984 128.1462 Q46.3906 127.6697 46.3906 126.9353 Q46.3906 126.4509 46.625 126.0759 Q46.8594 125.7009 47.2734 125.4978 Q47.6875 125.2947 48.4688 125.1384 Q49.5312 124.9509 49.9375 124.7791 L49.9375 124.6228 Q49.9375 124.1853 49.7188 124.0056 Q49.5 123.8259 48.9062 123.8259 Q48.5156 123.8259 48.2891 123.9822 Q48.0625 124.1384 47.9219 124.5291 ZM49.9375 125.7634 Q49.6406 125.8572 49.0156 125.99 Q48.3906 126.1228 48.2031 126.2478 Q47.9062 126.4666 47.9062 126.7791 Q47.9062 127.1072 48.1406 127.3337 Q48.375 127.5603 48.7344 127.5603 Q49.1406 127.5603 49.5156 127.2947 Q49.7969 127.0916 49.875 126.7947 Q49.9375 126.6072 49.9375 126.0603 L49.9375 125.7634 ZM55.4062 122.7947 L55.4062 123.9978 L54.375 123.9978 L54.375 126.2947 Q54.375 126.9978 54.4062 127.115 Q54.4375 127.2322 54.5391 127.3025 Q54.6406 127.3728 54.7969 127.3728 Q55 127.3728 55.4062 127.2322 L55.5312 128.4041 Q55 128.6228 54.3438 128.6228 Q53.9219 128.6228 53.5938 128.49 Q53.2656 128.3572 53.1172 128.1384 Q52.9688 127.9197 52.9062 127.5447 Q52.8594 127.2791 52.8594 126.4822 L52.8594 123.9978 L52.1719 123.9978 L52.1719 122.7947 L52.8594 122.7947 L52.8594 121.6541 L54.375 120.7791 L54.375 122.7947 L55.4062 122.7947 ZM60.0938 126.6853 L61.5938 126.9353 Q61.3125 127.7634 60.6875 128.1931 Q60.0625 128.6228 59.1094 128.6228 Q57.625 128.6228 56.9062 127.6541 Q56.3438 126.8728 56.3438 125.6853 Q56.3438 124.2634 57.0859 123.4666 Q57.8281 122.6697 58.9688 122.6697 Q60.2344 122.6697 60.9688 123.5056 Q61.7031 124.3416 61.6719 126.0759 L57.8906 126.0759 Q57.9062 126.7478 58.2578 127.1228 Q58.6094 127.4978 59.125 127.4978 Q59.4844 127.4978 59.7266 127.3025 Q59.9688 127.1072 60.0938 126.6853 ZM60.1719 125.1541 Q60.1562 124.4978 59.8359 124.1619 Q59.5156 123.8259 59.0625 123.8259 Q58.5625 123.8259 58.2344 124.1853 Q57.9219 124.5447 57.9219 125.1541 L60.1719 125.1541 ZM67.5469 128.4978 L67.5469 127.6384 Q67.2344 128.1072 66.7266 128.365 Q66.2188 128.6228 65.6562 128.6228 Q65.0781 128.6228 64.625 128.3728 Q64.1719 128.1228 63.9609 127.6619 Q63.75 127.2009 63.75 126.4041 L63.75 122.7947 L65.2656 122.7947 L65.2656 125.4197 Q65.2656 126.6228 65.3516 126.8884 Q65.4375 127.1541 65.6562 127.3181 Q65.875 127.4822 66.2188 127.4822 Q66.5938 127.4822 66.9062 127.2712 Q67.2188 127.0603 67.3281 126.74 Q67.4375 126.4197 67.4375 125.2009 L67.4375 122.7947 L68.9531 122.7947 L68.9531 128.4978 L67.5469 128.4978 ZM72.2344 128.4978 L70.7188 128.4978 L70.7188 122.7947 L72.125 122.7947 L72.125 123.6072 Q72.4844 123.0291 72.7734 122.8494 Q73.0625 122.6697 73.4219 122.6697 Q73.9375 122.6697 74.4219 122.9509 L73.9531 124.2634 Q73.5781 124.0134 73.25 124.0134 Q72.9219 124.0134 72.7031 124.1931 Q72.4844 124.3728 72.3594 124.8259 Q72.2344 125.2791 72.2344 126.7322 L72.2344 128.4978 Z"
         clip-path="url(#clipPath1)"
         stroke="none"
         id="path81" />
      <line
         clip-path="url(#clipPath1)"
         fill="none"
         x1="47"
         x2="47"
         y1="100"
         y2="110"
         stroke="rgb(178,178,178)"
         id="line83" />
      <line
         clip-path="url(#clipPath1)"
         fill="none"
         x1="34"
         x2="60"
         y1="105"
         y2="105"
         stroke="rgb(178,178,178)"
         id="line85" />
      <line
         clip-path="url(#clipPath1)"
         fill="none"
         x1="34"
         x2="47"
         y1="119"
         y2="110"
         stroke="rgb(178,178,178)"
         id="line87" />
      <line
         clip-path="url(#clipPath1)"
         fill="none"
         x1="60"
         x2="47"
         y1="119"
         y2="110"
         stroke="rgb(178,178,178)"
         id="line89" />
      <line
         clip-path="url(#clipPath1)"
         fill="none"
         x1="48"
         x2="48"
         y1="100"
         y2="111"
         stroke="rgb(178,178,178)"
         id="line91" />
      <line
         clip-path="url(#clipPath1)"
         fill="none"
         x1="35"
         x2="61"
         y1="106"
         y2="106"
         stroke="rgb(178,178,178)"
         id="line93" />
      <line
         clip-path="url(#clipPath1)"
         fill="none"
         x1="35"
         x2="48"
         y1="120"
         y2="111"
         stroke="rgb(178,178,178)"
         id="line95" />
      <line
         clip-path="url(#clipPath1)"
         fill="none"
         x1="61"
         x2="48"
         y1="120"
         y2="111"
         stroke="rgb(178,178,178)"
         id="line97" />
      <circle
         fill="rgb(178,178,178)"
         r="4.5"
         clip-path="url(#clipPath1)"
         cx="48.5"
         cy="97.5"
         stroke="none"
         id="circle99" />
      <circle
         fill="url(#linearGradient4)"
         r="4.5"
         clip-path="url(#clipPath1)"
         cx="46.5"
         cy="95.5"
         stroke="none"
         id="circle101" />
      <circle
         fill="none"
         r="4.5"
         clip-path="url(#clipPath1)"
         cx="46.5"
         cy="95.5"
         stroke="rgb(102,102,71)"
         id="circle103" />
      <line
         clip-path="url(#clipPath1)"
         fill="none"
         x1="46"
         x2="46"
         y1="100"
         y2="109"
         stroke="rgb(102,102,71)"
         id="line105" />
      <line
         clip-path="url(#clipPath1)"
         fill="none"
         x1="33"
         x2="59"
         y1="104"
         y2="104"
         stroke="rgb(102,102,71)"
         id="line107" />
      <line
         clip-path="url(#clipPath1)"
         fill="none"
         x1="33"
         x2="46"
         y1="118"
         y2="109"
         stroke="rgb(102,102,71)"
         id="line109" />
      <line
         clip-path="url(#clipPath1)"
         fill="none"
         x1="59"
         x2="46"
         y1="118"
         y2="109"
         stroke="rgb(102,102,71)"
         id="line111" />
      <path
         fill="none"
         d="M146 128 L60 114"
         clip-path="url(#clipPath1)"
         stroke="black"
         id="path113" />
      <path
         fill="none"
         d="M141 99 L60 110"
         clip-path="url(#clipPath1)"
         stroke="black"
         id="path115" />
    </g>
  </g>
</svg>
